<svg height="512.00003pt" viewBox="0 0 512.00003 512.00003" width="512.00003pt" xmlns="http://www.w3.org/2000/svg" xmlns:xlink="http://www.w3.org/1999/xlink"><linearGradient id="a" gradientTransform="matrix(469.332031 0 0 366.929688 8.535156 8.535156)" gradientUnits="userSpaceOnUse" x1=".065164" x2=".934782" y1="-.028884" y2="1.083419"><stop offset="0" stop-color="#dae5f4"/><stop offset=".172" stop-color="#dae5f4"/><stop offset=".2" stop-color="#dae5f4"/><stop offset=".201" stop-color="#ebecf4"/><stop offset=".201" stop-color="#f6f1f4"/><stop offset=".202" stop-color="#fdf4f4"/><stop offset=".205" stop-color="#fff5f4"/><stop offset=".252" stop-color="#fff5f4"/><stop offset=".26" stop-color="#fff5f4"/><stop offset=".26" stop-color="#dae5f4"/><stop offset=".397" stop-color="#dae5f4"/><stop offset=".42" stop-color="#dae5f4"/><stop offset=".421" stop-color="#ebecf4"/><stop offset=".421" stop-color="#f6f1f4"/><stop offset=".422" stop-color="#fdf4f4"/><stop offset=".425" stop-color="#fff5f4"/><stop offset=".489" stop-color="#fff5f4"/><stop offset=".5" stop-color="#fff5f4"/><stop offset=".5" stop-color="#eeeef4"/><stop offset=".5" stop-color="#e3e9f4"/><stop offset=".5" stop-color="#dce6f4"/><stop offset=".501" stop-color="#dae5f4"/><stop offset=".706" stop-color="#dae5f4"/><stop offset=".74" stop-color="#dae5f4"/><stop offset=".741" stop-color="#fff5f4"/><stop offset=".835" stop-color="#fff5f4"/><stop offset=".85" stop-color="#fff5f4"/><stop offset=".851" stop-color="#dae5f4"/></linearGradient><path d="m187.734375 418.132812h136.53125v68.265626h-136.53125zm0 0" fill="#a4c2f7"/><path d="m187.734375 418.132812h110.933594v68.265626h-110.933594zm0 0" fill="#e3e7f2"/><path d="m503.464844 349.867188v51.199218c0 18.851563-15.28125 34.132813-34.132813 34.132813h-426.664062c-18.851563 0-34.132813-15.28125-34.132813-34.132813v-51.199218zm0 0" fill="#a4c2f7"/><path d="m477.867188 349.867188v51.199218c0 18.851563-15.28125 34.132813-34.132813 34.132813h-401.066406c-18.851563 0-34.132813-15.28125-34.132813-34.132813v-51.199218zm0 0" fill="#e3e7f2"/><path d="m392.535156 494.933594v8.53125h-273.070312v-8.53125c0-14.140625 11.464844-25.601563 25.601562-25.601563h221.867188c14.136718 0 25.601562 11.460938 25.601562 25.601563zm0 0" fill="#a4c2f7"/><path d="m366.933594 494.933594v8.53125h-247.46875v-8.53125c0-14.140625 11.464844-25.601563 25.601562-25.601563h196.265625c14.140625 0 25.601563 11.460938 25.601563 25.601563zm0 0" fill="#e3e7f2"/><path d="m503.464844 42.667969v332.796875h-494.929688v-332.796875c0-18.851563 15.28125-34.132813 34.132813-34.132813h426.664062c2.265625.007813 4.523438.238282 6.742188.679688 1.507812.367187 2.988281.820312 4.4375 1.367187.597656.171875 1.28125.339844 1.792969.511719 1.230468.554688 2.425781 1.183594 3.582031 1.875.769531.429688 1.539062.769531 2.21875 1.195312.683593.429688 1.367187 1.109376 2.132812 1.707032.921875.664062 1.804688 1.375 2.648438 2.132812 6.75 6.429688 10.574219 15.339844 10.578125 24.664063zm0 0" fill="#a4c2f7"/><path d="m477.867188 42.667969v332.796875h-469.332032v-332.796875c0-18.851563 15.28125-34.132813 34.132813-34.132813h401.066406c2.261719.007813 4.519531.238282 6.742187.679688 1.503907.367187 2.984376.820312 4.433594 1.367187.597656.171875 1.28125.339844 1.792969.511719 1.230469.554688 2.425781 1.183594 3.585937 1.875.765626.429688 1.535157.769531 2.21875 1.195312.679688.429688 1.363282 1.109376 2.132813 1.707032.917969.664062 1.800781 1.375 2.644531 2.132812 6.753906 6.429688 10.578125 15.339844 10.582032 24.664063zm0 0" fill="url(#a)"/><path d="m307.199219 285.867188v25.597656c0 2.359375-1.910157 4.269531-4.265625 4.269531h-25.601563c2.359375 0 4.269531-1.910156 4.269531-4.269531v-25.597656c.039063-1.710938-.976562-3.273438-2.5625-3.925782-.535156-.242187-1.117187-.359375-1.707031-.339844h-12.796875c-18.851562 0-34.136718-15.285156-34.136718-34.136718v-145.066406l25.601562-.109376c2.988281 0-2.730469 8.984376 0 9.753907v135.421875c-.019531 14.878906 9.621094 28.042968 23.808594 32.515625 3.339844 1.0625 6.820312 1.609375 10.324218 1.621093h12.800782c2.355468 0 4.265625 1.910157 4.265625 4.265626zm0 0" fill="#a4c2f7"/><path d="m332.800781 81.066406v59.734375c0 2.355469-1.910156 4.265625-4.265625 4.265625h-21.335937c0-1.023437-.085938-2.132812-.167969-3.15625.101562-.363281.160156-.734375.167969-1.109375v-59.734375c0-2.355468-1.910157-4.265625-4.265625-4.265625h25.601562c2.355469 0 4.265625 1.910157 4.265625 4.265625zm0 0" fill="#a4c2f7"/><path d="m307.199219 81.066406v59.734375c-.007813.375-.066407.746094-.167969 1.109375-1.585938-17.566406-16.328125-31.011718-33.964844-30.976562h-17.066406v1.109375c-2.730469-.769531 2.988281-9.753907 0-9.753907l-25.601562.109376v145.066406c0 18.851562 15.285156 34.136718 34.136718 34.136718h12.796875c.589844-.019531 1.171875.097657 1.707031.339844 1.585938.652344 2.601563 2.214844 2.5625 3.925782v25.597656c0 2.359375-1.910156 4.269531-4.269531 4.269531h-119.464843c-2.355469 0-4.265626-1.910156-4.265626-4.269531v-25.597656c-.042968-1.710938.976563-3.273438 2.558594-3.925782.535156-.242187 1.117188-.359375 1.707032-.339844h12.800781c18.851562 0 34.132812-15.285156 34.132812-34.136718v-136.53125h-17.066406c-2.882813-.027344-5.753906.347656-8.535156 1.109375-15.074219 3.867187-25.613281 17.460937-25.597657 33.023437h-21.335937c-1.9375.039063-3.640625-1.273437-4.09375-3.15625-.105469-.363281-.164063-.734375-.171875-1.109375v-59.734375c0-2.355468 1.910156-4.265625 4.265625-4.265625h170.667969c2.355468 0 4.265625 1.910157 4.265625 4.265625zm0 0" fill="#e3e7f2"/><path d="m42.667969 435.199219h25.597656c-18.851563 0-34.132813-15.28125-34.132813-34.132813v-358.398437c0-18.851563 15.28125-34.132813 34.132813-34.132813h-25.597656c-18.851563 0-34.132813 15.28125-34.132813 34.132813v358.398437c0 18.851563 15.28125 34.132813 34.132813 34.132813zm0 0" fill="#fff"/><path d="m17.066406 42.640625v324.265625h-17.066406v-324.265625zm0 0" fill="#fff"/><g fill="#428dff"><path d="m8.535156 119.464844c2.257813-.03125 4.421875-.914063 6.058594-2.472656 3.296875-3.363282 3.296875-8.746094 0-12.109376l-1.28125-1.03125c-.476562-.324218-.992188-.582031-1.535156-.769531-.484375-.246093-1-.417969-1.539063-.503906-.5625-.101563-1.132812-.160156-1.703125-.179687-2.261718.035156-4.425781.921874-6.058594 2.484374-3.21875 3.394532-3.21875 8.714844 0 12.109376.8125.769531 1.769532 1.378906 2.8125 1.792968 1.027344.4375 2.128907.667969 3.246094.679688zm0 0"/><path d="m469.332031 0h-426.664062c-23.554688.0234375-42.6445315 19.113281-42.667969 42.667969v34.132812c0 4.710938 3.820312 8.53125 8.535156 8.53125 4.710938 0 8.53125-3.820312 8.53125-8.53125v-34.132812c0-14.140625 11.460938-25.601563 25.601563-25.601563h426.664062c14.140625 0 25.601563 11.460938 25.601563 25.601563v332.796875h-477.867188v-230.398438c0-4.710937-3.820312-8.53125-8.53125-8.53125-4.714844 0-8.535156 3.820313-8.535156 8.53125v256c.0273438 23.550782 19.113281 42.640625 42.667969 42.667969h136.53125v17.066406h-34.132813c-18.851562 0-34.132812 15.28125-34.132812 34.132813v8.53125c0 4.714844 3.820312 8.535156 8.53125 8.535156h273.070312c4.710938 0 8.53125-3.820312 8.53125-8.535156v-8.53125c0-18.851563-15.28125-34.132813-34.132812-34.132813h-34.132813v-17.066406h136.53125c23.554688-.027344 42.640625-19.117187 42.667969-42.667969v-358.398437c-.027344-23.554688-19.113281-42.6406252-42.667969-42.667969zm-85.332031 494.933594h-256c0-9.425782 7.640625-17.066406 17.066406-17.066406h221.867188c9.425781 0 17.066406 7.640624 17.066406 17.066406zm-187.734375-34.132813v-17.066406h119.46875v17.066406zm273.066406-34.132812h-426.664062c-14.140625 0-25.601563-11.460938-25.601563-25.601563v-8.53125h477.867188v8.53125c0 14.140625-11.460938 25.601563-25.601563 25.601563zm0 0"/><path d="m273.066406 119.464844c6.792969-.011719 13.3125 2.679687 18.117188 7.484375 4.804687 4.804687 7.496094 11.324219 7.484375 18.117187 0 4.714844 3.820312 8.535156 8.53125 8.535156h21.335937c3.394532 0 6.648438-1.351562 9.050782-3.75 2.398437-2.402343 3.746093-5.65625 3.746093-9.050781v-59.734375c0-7.070312-5.730469-12.800781-12.796875-12.800781h-196.269531c-7.066406 0-12.800781 5.730469-12.800781 12.800781v59.734375c0 7.070313 5.734375 12.800781 12.800781 12.800781h21.335937c4.710938 0 8.53125-3.820312 8.53125-8.535156 0-14.136718 11.460938-25.601562 25.601563-25.601562h8.53125v128c0 14.140625-11.460937 25.601562-25.597656 25.601562h-12.800781c-7.070313 0-12.800782 5.730469-12.800782 12.800782v25.597656c0 7.070312 5.730469 12.800781 12.800782 12.800781h145.066406c7.070312 0 12.800781-5.730469 12.800781-12.800781v-25.597656c0-7.070313-5.730469-12.800782-12.800781-12.800782h-12.800782c-14.136718 0-25.597656-11.460937-25.597656-25.601562v-128zm17.066406 170.667968h8.535157v17.066407h-136.535157v-17.066407h8.535157c23.550781-.027343 42.636719-19.113281 42.664062-42.667968v-136.53125c0-4.714844-3.820312-8.535156-8.53125-8.535156h-17.066406c-20.269531.019531-37.738281 14.277343-41.8125 34.136718h-9.386719v-51.203125h187.730469v51.203125h-9.386719c-4.035156-19.882812-21.527344-34.164062-41.8125-34.136718h-17.066406c-4.710938 0-8.535156 3.820312-8.535156 8.535156v136.53125c.03125 23.554687 19.117187 42.640625 42.667968 42.667968zm0 0"/><path d="m384 119.464844c4.710938 0 8.535156-3.820313 8.535156-8.53125v-17.066406c0-4.714844-3.824218-8.535157-8.535156-8.535157s-8.535156 3.820313-8.535156 8.535157v17.066406c0 4.710937 3.824218 8.53125 8.535156 8.53125zm0 0"/><path d="m375.464844 298.667969c0 4.710937 3.824218 8.53125 8.535156 8.53125s8.535156-3.820313 8.535156-8.53125v-153.601563c0-4.710937-3.824218-8.53125-8.535156-8.53125s-8.535156 3.820313-8.535156 8.53125zm0 0"/></g></svg>