<?xml version="1.0" encoding="UTF-8"?>
<svg xmlns="http://www.w3.org/2000/svg" xmlns:xlink="http://www.w3.org/1999/xlink" width="512" height="512" viewBox="0 0 57 57" version="1.1"><!-- Generator: Sketch 51.3 (57544) - http://www.bohemiancoding.com/sketch --><title>026 - Accessibility Tool</title><desc>Created with Sketch.</desc><defs/><g id="Page-1" stroke="none" stroke-width="1" fill="none" fill-rule="evenodd"><g id="026---Accessibility-Tool" transform="translate(-1.000000, 0.000000)" fill-rule="nonzero"><path d="M46,30 C45.9902758,39.5390733 38.535128,47.4114175 29.0107075,47.9400276 C19.486287,48.4686378 11.2057717,41.4696308 10.1405121,31.9902196 C9.07525246,22.5108084 15.5958112,13.8485139 25,12.25 L25,4.17 C11.1242218,5.78181697 1.00191114,18.0699708 2.07713505,31.9976076 C3.15235896,45.9252444 15.0407958,56.5141521 28.9995484,55.9771226 C42.9583009,55.4400931 53.9980353,43.9690791 54,30 L54,29.62 L46,30 Z" id="Shape" fill="#E8EDFC"/><path d="M25,4.17 L25,12.25 C21.3153677,12.8739039 17.9173586,14.6323386 15.28,17.28 L9.62,11.62 C13.7578169,7.47048144 19.1789137,4.84452751 25,4.17 Z" id="Shape" fill="#E8EDFC"/><path d="M15.28,17.28 C11.8981535,20.6489165 9.99803226,25.2264813 10,30 L1.99997,30 C1.98950591,23.1027514 4.73243455,16.4866059 9.62,11.62 L15.28,17.28 Z" id="Shape" fill="#E8EDFC"/><path d="M15.28,42.72 L9.62,48.38 C4.73243455,43.5133941 1.98950591,36.8972486 1.99997,30 L10,30 C9.99803226,34.7735187 11.8981535,39.3510835 15.28,42.72 Z" id="Shape" fill="#E8EDFC"/><path d="M28,48 L28,56.00003 C21.1027514,56.0104941 14.4866059,53.2675654 9.62,48.38 L15.28,42.72 C18.6489165,46.1018465 23.2264813,48.0019677 28,48 Z" id="Shape" fill="#E8EDFC"/><path d="M46.38,48.38 C41.5133941,53.2675654 34.8972486,56.0104941 28,56.00003 L28,48 C32.7735187,48.0019677 37.3510835,46.1018465 40.72,42.72 L46.38,48.38 Z" id="Shape" fill="#E8EDFC"/><path d="M54.00003,29.62 L54,30 C54.0104941,36.8972486 51.2675654,43.5133941 46.38,48.38 L44.82,46.82 C48.8210262,42.1303653 51.0130131,36.164472 51,30 C51.0016609,29.9198699 50.9983211,29.8397142 50.99,29.76 L54.00003,29.62 Z" id="Shape" fill="#CAD9FC"/><path d="M46.38,48.38 C41.5133941,53.2675654 34.8972486,56.0104941 28,56.00003 L28,55.83 C34.5479798,55.0734285 40.5621449,51.8518098 44.82,46.82 L46.38,48.38 Z" id="Shape" fill="#CAD9FC"/><path d="M35,22 L28,30 L26.5,28.29 L21,22 L25,22 L25,3 C25.0029536,2.09042151 25.6192985,1.29739103 26.5,1.07 C26.6621858,1.02159843 26.8307578,0.997998343 27,1 L29,1 C30.1032019,1.0032948 30.9967052,1.89679813 31,3 L31,22 L35,22 Z" id="Shape" fill="#7FACFA"/><path d="M32,22 L30.25,24 L26.5,28.29 L21,22 L25,22 L25,3 C25.0029536,2.09042151 25.6192985,1.29739103 26.5,1.07 C27.3807015,1.29739103 27.9970464,2.09042151 28,3 L28,22 L32,22 Z" id="Shape" fill="#A4C2F7"/><polygon id="Shape" fill="#7FACFA" points="57 27 53.57 30 49 34 49 30 28 30 33.25 24 49 24 49 20"/><polygon id="Shape" fill="#A4C2F7" points="53 27 49.57 30 49 30.5 49 30 28 30 33.25 24 49 24 49 23.5"/><path d="M25,3 L25,4.17 C11.3020554,5.74405878 1.21488255,17.7373767 2.01162468,31.5024248 C2.8083668,45.2674729 14.2119232,56.0168744 28,56 C28.5,56 29,55.982 29.5,55.954 C19.2735306,55.366373 10.3459388,48.8270334 6.70108227,39.2541027 C3.05622572,29.681172 5.37395334,18.8602203 12.62,11.62 C16.66,7.58 19.02,4.86 25,4.17 L25,3" id="Shape" fill="#FFFFFF"/><path d="M28,57 C17.0789749,57.0028878 7.2322611,50.4248432 3.05376439,40.3348004 C-1.12473233,30.2447577 1.18840476,18.6310658 8.914,10.912 C13.2178191,6.61234562 18.8441449,3.88724819 24.886,3.176 C25.241122,3.13527172 25.5909965,3.28709257 25.8038293,3.5742731 C26.016662,3.86145364 26.0601185,4.2403643 25.9178293,4.5682731 C25.77554,4.89618191 25.469122,5.12327172 25.114,5.164 C19.5202828,5.82273778 14.3113719,8.34599666 10.327,12.327 C0.566471616,22.0872522 0.566247759,37.9119716 10.3265,47.6725 C20.0867522,57.4330284 35.9114716,57.4332522 45.672,47.673 C50.3801239,42.999243 53.0194293,36.6340077 53,30 L53,29.62 C53,29.0677153 53.4477153,28.62 54,28.62 C54.5522847,28.62 55,29.0677153 55,29.62 L55,30 C54.9906225,44.9078022 42.9078022,56.9906225 28,57 Z M28,49 C18.1188802,49.0045245 9.88362889,41.434546 9.05777755,31.5879975 C8.23192621,21.741449 15.0911737,12.9054622 24.835,11.264 C25.1914798,11.1954895 25.5570917,11.3255399 25.7902298,11.6037811 C26.0233678,11.8820223 26.0874151,12.2647534 25.9575654,12.603738 C25.8277156,12.9427226 25.5243631,13.1847194 25.165,13.236 C16.2788298,14.7440409 10.1161969,22.9280555 11.12217,31.8849649 C12.1281431,40.8418743 19.9526752,47.454955 28.95198,46.9542331 C37.9512847,46.4535111 44.9938863,39.013222 45,30 C45,29.4477153 45.4477153,29 46,29 C46.5522847,29 47,29.4477153 47,30 C46.9851288,40.4872442 38.4872442,48.9851288 28,49 Z" id="Shape" fill="#428DFF"/><path d="M28,57 C27.4477153,57 27,56.5522847 27,56 L27,48 C27,47.4477153 27.4477153,47 28,47 C28.5522847,47 29,47.4477153 29,48 L29,56 C29,56.5522847 28.5522847,57 28,57 Z" id="Shape" fill="#428DFF"/><path d="M9.62,49.38 C9.2156041,49.3799137 8.85106595,49.1362725 8.69632202,48.7626546 C8.54157809,48.3890366 8.62709208,47.9589943 8.913,47.673 L14.573,42.013 C14.8240745,41.7530434 15.1958779,41.6487874 15.5455073,41.7403028 C15.8951368,41.8318183 16.1681817,42.1048632 16.2596972,42.4544927 C16.3512126,42.8041221 16.2469566,43.1759255 15.987,43.427 L10.327,49.087 C10.1395073,49.2745494 9.88519481,49.3799434 9.62,49.38 Z" id="Shape" fill="#428DFF"/><path d="M10,31 L2,31 C1.44771525,31 1,30.5522847 1,30 C1,29.4477153 1.44771525,29 2,29 L10,29 C10.5522847,29 11,29.4477153 11,30 C11,30.5522847 10.5522847,31 10,31 Z" id="Shape" fill="#428DFF"/><path d="M49,31 L46,31 C45.4477153,31 45,30.5522847 45,30 C45,29.4477153 45.4477153,29 46,29 L49,29 C49.5522847,29 50,29.4477153 50,30 C50,30.5522847 49.5522847,31 49,31 Z" id="Shape" fill="#428DFF"/><path d="M15.28,18.28 C15.0148052,18.2799434 14.7604927,18.1745494 14.573,17.987 L8.913,12.327 C8.53402779,11.9346211 8.53944763,11.3109152 8.92518142,10.9251814 C9.31091522,10.5394476 9.93462111,10.5340278 10.327,10.913 L15.987,16.573 C16.2729079,16.8589943 16.3584219,17.2890366 16.203678,17.6626546 C16.0489341,18.0362725 15.6843959,18.2799137 15.28,18.28 Z" id="Shape" fill="#428DFF"/><path d="M46.38,49.38 C46.1148052,49.3799434 45.8604927,49.2745494 45.673,49.087 L40.013,43.427 C39.6340278,43.0346211 39.6394476,42.4109152 40.0251814,42.0251814 C40.4109152,41.6394476 41.0346211,41.6340278 41.427,42.013 L47.087,47.673 C47.3729079,47.9589943 47.4584219,48.3890366 47.303678,48.7626546 C47.1489341,49.1362725 46.7843959,49.3799137 46.38,49.38 Z" id="Shape" fill="#428DFF"/><path d="M31,23 C30.4477153,23 30,22.5522847 30,22 L30,3 C30,2.44771525 29.5522847,2 29,2 L27,2 C26.4477153,2 26,2.44771525 26,3 L26,22 C26,22.5522847 25.5522847,23 25,23 C24.4477153,23 24,22.5522847 24,22 L24,3 C24,1.34314575 25.3431458,3.04359188e-16 27,0 L29,0 C30.6568542,1.01453063e-16 32,1.34314575 32,3 L32,22 C32,22.5522847 31.5522847,23 31,23 Z" id="Shape" fill="#428DFF"/><path d="M28,31 C27.7117368,30.9994671 27.4375516,30.8753009 27.247,30.659 L20.247,22.659 C19.9882425,22.3636701 19.9262652,21.9442383 20.0885507,21.586693 C20.2508362,21.2291477 20.6073487,20.9996633 21,21 L25,21 C25.5522847,21 26,21.4477153 26,22 C26,22.5522847 25.5522847,23 25,23 L23.2,23 L28,28.481 L32.8,23 L31,23 C30.4477153,23 30,22.5522847 30,22 C30,21.4477153 30.4477153,21 31,21 L35,21 C35.3926513,20.9996633 35.7491638,21.2291477 35.9114493,21.586693 C36.0737348,21.9442383 36.0117575,22.3636701 35.753,22.659 L28.753,30.659 C28.5624484,30.8753009 28.2882632,30.9994671 28,31 Z" id="Shape" fill="#428DFF"/><path d="M49,25 L33.25,25 C32.6977153,25 32.25,24.5522847 32.25,24 C32.25,23.4477153 32.6977153,23 33.25,23 L49,23 C49.5522847,23 50,23.4477153 50,24 C50,24.5522847 49.5522847,25 49,25 Z" id="Shape" fill="#428DFF"/><path d="M49,31 L28,31 C27.4477153,31 27,30.5522847 27,30 C27,29.4477153 27.4477153,29 28,29 L49,29 C49.5522847,29 50,29.4477153 50,30 C50,30.5522847 49.5522847,31 49,31 Z" id="Shape" fill="#428DFF"/><path d="M49,35 C48.4477153,35 48,34.5522847 48,34 L48,30 C48,29.4477153 48.4477153,29 49,29 C49.5522847,29 50,29.4477153 50,30 L50,31.8 L55.481,27 L50,22.2 L50,24 C50,24.5522847 49.5522847,25 49,25 C48.4477153,25 48,24.5522847 48,24 L48,20 C48.0003989,19.6079289 48.2298804,19.2522609 48.5869416,19.0903127 C48.9440028,18.9283645 49.3627634,18.9900169 49.658,19.248 L57.658,26.248 C57.8732504,26.437833 57.9965622,26.7109994 57.9965622,26.998 C57.9965622,27.2850006 57.8732504,27.558167 57.658,27.748 L49.658,34.748 C49.4765042,34.9090488 49.2426428,34.9986128 49,35 Z" id="Shape" fill="#428DFF"/><path d="M10.326,12.328 C7.36460282,15.2884352 5.19361101,18.9448063 4.012,22.962 C3.34504156,25.2486641 3.00434439,27.618058 3,30 L1,30 C1.00441113,27.427892 1.3720411,24.8692951 2.092,22.4 C3.36867854,18.0603479 5.71436984,14.1106328 8.914,10.913 L10.326,12.328 Z" id="Shape" fill="#FFFFFF"/><path d="M6.44,15.469 C6.88757384,15.776039 7.49732291,15.6779336 7.826,15.246 C8.58824155,14.21461 9.42373367,13.2394236 10.326,12.328 L8.914,10.912 C7.93925942,11.8959114 7.03690857,12.9489882 6.214,14.063 C6.05266843,14.2777314 5.98560862,14.5488434 6.02823361,14.8140236 C6.0708586,15.0792038 6.21950214,15.3156438 6.44,15.469 Z" id="Shape" fill="#428DFF"/><path d="M1,30 L3,30 C3.00434439,27.618058 3.34504156,25.2486641 4.012,22.962 C4.093,22.652 4.195,22.348 4.3,22.045 C4.45735539,21.5292618 4.1899008,20.9795183 3.687,20.785 C3.43450628,20.6889004 3.15352405,20.7014128 2.91057165,20.8195752 C2.66761924,20.9377376 2.48429566,21.1510449 2.404,21.409 C2.291,21.736 2.181,22.064 2.092,22.399 C1.37194791,24.8686168 1.00431699,27.4275569 1,30 Z" id="Shape" fill="#428DFF"/><path d="M5.8,18.51 C5.90945196,18.2780377 5.93318934,18.0148008 5.867,17.767 L5.794,17.592 C5.76396705,17.5323834 5.72631887,17.4769195 5.682,17.427 C5.64653631,17.3742249 5.60339438,17.3270384 5.554,17.287 C5.50229609,17.2447655 5.44784279,17.2060135 5.391,17.171 C5.15726481,17.04222 4.88276071,17.0088924 4.625,17.078 C4.4955085,17.1184979 4.37640757,17.1867506 4.276,17.278 C3.96397227,17.5509103 3.83705921,17.9791445 3.95,18.378 C4.04496943,18.6267146 4.22932759,18.8310419 4.467,18.951 C4.70651668,19.0586642 4.97705527,19.0753729 5.228,18.998 C5.4740048,18.914375 5.67867261,18.7397633 5.8,18.51 Z" id="Shape" fill="#428DFF"/></g></g></svg>