<?xml version="1.0" encoding="UTF-8"?>
<svg xmlns="http://www.w3.org/2000/svg" xmlns:xlink="http://www.w3.org/1999/xlink" width="512" height="512" viewBox="0 0 60 60" version="1.1"><!-- Generator: Sketch 51.3 (57544) - http://www.bohemiancoding.com/sketch --><title>030 - Zoomed content</title><desc>Created with Sketch.</desc><defs><linearGradient x1="1.014%" y1="4.59%" x2="86.328%" y2="111.2325%" id="linearGradient-1"><stop stop-color="#D3DFF2" offset="0%"/><stop stop-color="#D3DFF2" offset="17.2%"/><stop stop-color="#D3DFF2" offset="20%"/><stop stop-color="#DAE2F2" offset="20%"/><stop stop-color="#EBEAF2" offset="20.1%"/><stop stop-color="#F6EFF2" offset="20.1%"/><stop stop-color="#FDF2F2" offset="20.2%"/><stop stop-color="#FFF3F2" offset="20.5%"/><stop stop-color="#FFF3F2" offset="25.2%"/><stop stop-color="#FFF3F2" offset="26%"/><stop stop-color="#D3DFF2" offset="26%"/><stop stop-color="#D3DFF2" offset="39.7%"/><stop stop-color="#D3DFF2" offset="42%"/><stop stop-color="#DAE2F2" offset="42%"/><stop stop-color="#EBEAF2" offset="42.1%"/><stop stop-color="#F6EFF2" offset="42.1%"/><stop stop-color="#FDF2F2" offset="42.2%"/><stop stop-color="#FFF3F2" offset="42.5%"/><stop stop-color="#FFF3F2" offset="48.9%"/><stop stop-color="#FFF3F2" offset="50%"/><stop stop-color="#F8F0F2" offset="50%"/><stop stop-color="#E7E8F2" offset="50%"/><stop stop-color="#DCE3F2" offset="50%"/><stop stop-color="#D5E0F2" offset="50%"/><stop stop-color="#D3DFF2" offset="50.1%"/><stop stop-color="#D3DFF2" offset="70.6%"/><stop stop-color="#D3DFF2" offset="74%"/><stop stop-color="#FFF3F2" offset="74.1%"/><stop stop-color="#FFF3F2" offset="83.5%"/><stop stop-color="#FFF3F2" offset="85%"/><stop stop-color="#D3DFF2" offset="85.1%"/></linearGradient></defs><g id="Page-1" stroke="none" stroke-width="1" fill="none" fill-rule="evenodd"><g id="030---Zoomed-content" fill-rule="nonzero"><path d="M51,24 L51,45 C51,47.209139 49.209139,49 47,49 L5,49 C2.790861,49 1,47.209139 1,45 L1,13 C1,10.790861 2.790861,9 5,9 L34,9" id="Shape" fill="url(#linearGradient-1)"/><rect id="Rectangle-path" fill="#7FACFA" x="21" y="47" width="10" height="10"/><rect id="Rectangle-path" fill="#A4C2F7" x="21" y="47" width="7" height="10"/><path d="M41,58 L41,59 L11,59 L11,58 C11,56.3431458 12.3431458,55 14,55 L38,55 C39.6568542,55 41,56.3431458 41,58 Z" id="Shape" fill="#A4C2F7"/><path d="M38,58 L38,59 L11,59 L11,58 C11,56.3431458 12.3431458,55 14,55 L35,55 C36.6568542,55 38,56.3431458 38,58 Z" id="Shape" fill="#CAD9FC"/><path d="M51,42 L51,45 C51,47.209139 49.209139,49 47,49 L5,49 C2.790861,49 1,47.209139 1,45 L1,42 L51,42 Z" id="Shape" fill="#A4C2F7"/><path d="M48,42 L48,45 C48,47.209139 46.209139,49 44,49 L5,49 C2.790861,49 1,47.209139 1,45 L1,42 L48,42 Z" id="Shape" fill="#CAD9FC"/><path d="M32.52,25.65 L23.59,34.59 C23.0862555,35.0937445 22.8895209,35.8279681 23.0739042,36.5160958 C23.2582875,37.2042236 23.7957764,37.7417125 24.4839042,37.9260958 C25.1720319,38.1104791 25.9062555,37.9137445 26.41,37.41 L35.48,28.34 L32.52,25.65 Z" id="Shape" fill="#A4C2F7"/><path d="M59,16 C58.9972403,24.2831279 52.2831279,30.9972403 44,31 C43.5088158,31.0038156 43.0178692,30.9770974 42.53,30.92 C42.51,30.92 42.49,30.93 42.47,30.92 C34.825708,30.1273267 29.0171264,23.6852802 29.0171264,16 C29.0171264,8.3147198 34.825708,1.87267331 42.47,1.08 C42.49,1.07 42.51,1.08 42.53,1.08 C43.0178692,1.02290259 43.5088158,0.996184415 44,1 C52.2831279,1.00275966 58.9972403,7.71687211 59,16 Z" id="Shape" fill="#CAD9FC"/><path d="M56,16 C55.9935489,23.6890571 50.1783891,30.1301992 42.53,30.92 C42.51,30.92 42.49,30.93 42.47,30.92 C34.825708,30.1273267 29.0171264,23.6852802 29.0171264,16 C29.0171264,8.3147198 34.825708,1.87267331 42.47,1.08 C42.49,1.07 42.51,1.08 42.53,1.08 C50.1783891,1.8698008 55.9935489,8.31094285 56,16 Z" id="Shape" fill="#E8EDFC"/><circle id="Oval" fill="#A4C2F7" cx="44" cy="16" r="11"/><path d="M49,14 L46,14 L46,11 C46,9.8954305 45.1045695,9 44,9 C42.8954305,9 42,9.8954305 42,11 L42,14 L39,14 C37.8954305,14 37,14.8954305 37,16 C37,17.1045695 37.8954305,18 39,18 L42,18 L42,21 C42,22.1045695 42.8954305,23 44,23 C45.1045695,23 46,22.1045695 46,21 L46,18 L49,18 C50.1045695,18 51,17.1045695 51,16 C51,14.8954305 50.1045695,14 49,14 Z" id="Shape" fill="#FFFFFF"/><rect id="Rectangle-path" fill="#A4C2F7" x="48" y="30" width="2" height="12"/><path d="M14,58 C14,56.3431458 15.3431458,55 17,55 L14,55 C12.3431458,55 11,56.3431458 11,58 L11,59 L14,59 L14,58 Z" id="Shape" fill="#FFFFFF"/><path d="M2.763,48.317 C3.19604022,48.6089023 3.68227023,48.8127723 4.194,48.917 C4.45920124,48.9716402 4.72922899,48.999447 5,49 L8,49.0000003 C7.72929644,49.0001052 7.45926937,48.9729685 7.194,48.919 C5.33408833,48.5363798 3.99950349,46.89886 4,45 L4,13 C4,10.790861 5.790861,9 8,9 L5,9 C2.790861,9 1,10.790861 1,13 L1,45 C0.999666273,46.3300072 1.66042523,47.5731935 2.763,48.317 Z" id="Shape" fill="#FFFFFF"/><polygon id="Shape" fill="#FFFFFF" points="2 14 2 27 2 45 0 45 0 27 0 14"/><path d="M1,19 C1.55228475,19 2,18.5522847 2,18 L2,14 L0,14 L0,18 C6.76353751e-17,18.5522847 0.44771525,19 1,19 Z" id="Shape" fill="#428DFF"/><path d="M0,45 L2,45 L2,26 C2,25.4477153 1.55228475,25 1,25 C0.44771525,25 6.76353751e-17,25.4477153 0,26 L0,45 Z" id="Shape" fill="#428DFF"/><path d="M2,22 C1.99611961,21.7352731 1.89256504,21.481743 1.71,21.29 L1.56,21.17 C1.50427287,21.1321227 1.44373808,21.1018554 1.38,21.08 C1.32333758,21.0511123 1.26266255,21.0308873 1.2,21.02 C1.13385548,21.0088692 1.06703885,21.0021875 1,21 C0.735273141,21.0038804 0.481742984,21.107435 0.29,21.29 C0.199603156,21.3856071 0.12832305,21.4976187 0.08,21.62 C-0.0708765757,21.9929737 0.0113519394,22.4197788 0.29,22.71 C0.385607086,22.8003968 0.497618681,22.871677 0.62,22.92 C0.740222313,22.971241 0.869322743,22.99842 1,23 C1.26472686,22.9961196 1.51825702,22.892565 1.71,22.71 C1.89256504,22.518257 1.99611961,22.2647269 2,22 Z" id="Shape" fill="#428DFF"/><path d="M1,15 C0.44771525,15 6.76353751e-17,14.5522847 0,14 C0.025299605,11.2178448 2.29779368,8.98113801 5.08,9 L30.25,9 C30.8022847,9 31.25,9.44771525 31.25,10 C31.25,10.5522847 30.8022847,11 30.25,11 L5.08,11 C3.40210154,10.9805309 2.02468525,12.3221702 2,14 C2,14.2652165 1.89464316,14.5195704 1.70710678,14.7071068 C1.5195704,14.8946432 1.26521649,15 1,15 Z" id="Shape" fill="#428DFF"/><path d="M46.92,50 L5.08,50 C2.29779368,50.018862 0.025299605,47.7821552 0,45 C-6.76353751e-17,44.4477153 0.44771525,44 1,44 C1.55228475,44 2,44.4477153 2,45 C2.02468525,46.6778298 3.40210154,48.0194691 5.08,48 L46.92,48 C48.5978985,48.0194691 49.9753148,46.6778298 50,45 L50,29.27 C50,28.7177153 50.4477153,28.27 51,28.27 C51.5522847,28.27 52,28.7177153 52,29.27 L52,45 C51.9747004,47.7821552 49.7022063,50.018862 46.92,50 Z" id="Shape" fill="#428DFF"/><path d="M41,60 L11,60 C10.4477153,60 10,59.5522847 10,59 L10,58 C10,55.790861 11.790861,54 14,54 L38,54 C40.209139,54 42,55.790861 42,58 L42,59 C42,59.5522847 41.5522847,60 41,60 Z M12,58 L40,58 C40,56.8954305 39.1045695,56 38,56 L14,56 C12.8954305,56 12,56.8954305 12,58 Z" id="Shape" fill="#428DFF"/><path d="M31,56 L21,56 C20.4477153,56 20,55.5522847 20,55 L20,49 C20,48.4477153 20.4477153,48 21,48 L31,48 C31.5522847,48 32,48.4477153 32,49 L32,55 C32,55.5522847 31.5522847,56 31,56 Z M22,54 L30,54 L30,50 L22,50 L22,54 Z" id="Shape" fill="#428DFF"/><path d="M51,43 L1,43 C0.44771525,43 6.76353751e-17,42.5522847 0,42 C-6.76353751e-17,41.4477153 0.44771525,41 1,41 L51,41 C51.5522847,41 52,41.4477153 52,42 C52,42.5522847 51.5522847,43 51,43 Z" id="Shape" fill="#428DFF"/><path d="M44,32 C35.163444,32 28,24.836556 28,16 C28,7.163444 35.163444,1.623249e-15 44,0 C52.836556,-1.623249e-15 60,7.163444 60,16 C59.9895304,24.8322157 52.8322157,31.9895304 44,32 Z M44,2 C36.2680135,2 30,8.2680135 30,16 C30,23.7319865 36.2680135,30 44,30 C51.7319865,30 58,23.7319865 58,16 C57.9917327,8.27144053 51.7285595,2.00826732 44,2 Z" id="Shape" fill="#428DFF"/><path d="M44,28 C39.1464531,28 34.7708176,25.0762939 32.9134456,20.5922012 C31.0560736,16.1081085 32.0827427,10.9466946 35.5147186,7.51471863 C38.9466946,4.08274267 44.1081085,3.05607361 48.5922012,4.91344561 C53.0762939,6.77081761 56,11.1464531 56,16 C55.9928352,22.624447 50.624447,27.9928352 44,28 Z M44,6 C38.4771525,6 34,10.4771525 34,16 C34,21.5228475 38.4771525,26 44,26 C49.5228475,26 54,21.5228475 54,16 C53.9939376,10.4796656 49.5203344,6.00606237 44,6 Z" id="Shape" fill="#428DFF"/><path d="M25,39 C23.7840773,39.0036297 22.6867187,38.2715192 22.2231696,37.1474181 C21.7596205,36.0233169 22.0219555,34.7305053 22.887,33.876 L31.812,24.941 C32.0628919,24.680872 32.4346186,24.5763577 32.7843089,24.6676267 C33.1339992,24.7588957 33.4072343,25.0317446 33.4989978,25.3813054 C33.5907612,25.7308663 33.4867729,26.1027404 33.227,26.354 L24.3,35.3 C23.9361535,35.6908818 23.9457483,36.2992819 24.3217397,36.6784961 C24.697731,37.0577102 25.3060271,37.0724972 25.7,36.712 L34.775,27.637 C35.0275868,27.3842346 35.3958353,27.2854232 35.74103,27.377787 C36.0862246,27.4701509 36.3559221,27.7396577 36.44853,28.084787 C36.5411379,28.4299163 36.4425868,28.7982346 36.19,29.051 L27.119,38.121 C26.5599283,38.6875048 25.7959077,39.0044345 25,39 Z" id="Shape" fill="#428DFF"/><path d="M44,24 C42.3431458,24 41,22.6568542 41,21 L41,19 L39,19 C37.3431458,19 36,17.6568542 36,16 C36,14.3431458 37.3431458,13 39,13 L41,13 L41,11 C41,9.34314575 42.3431458,8 44,8 C45.6568542,8 47,9.34314575 47,11 L47,13 L49,13 C50.6568542,13 52,14.3431458 52,16 C52,17.6568542 50.6568542,19 49,19 L47,19 L47,21 C47,22.6568542 45.6568542,24 44,24 Z M39,15 C38.4477153,15 38,15.4477153 38,16 C38,16.5522847 38.4477153,17 39,17 L42,17 C42.5522847,17 43,17.4477153 43,18 L43,21 C43,21.5522847 43.4477153,22 44,22 C44.5522847,22 45,21.5522847 45,21 L45,18 C45,17.4477153 45.4477153,17 46,17 L49,17 C49.5522847,17 50,16.5522847 50,16 C50,15.4477153 49.5522847,15 49,15 L46,15 C45.4477153,15 45,14.5522847 45,14 L45,11 C45,10.4477153 44.5522847,10 44,10 C43.4477153,10 43,10.4477153 43,11 L43,14 C43,14.5522847 42.5522847,15 42,15 L39,15 Z" id="Shape" fill="#428DFF"/><path d="M7,17 L6,17 C5.44771525,17 5,16.5522847 5,16 C5,15.4477153 5.44771525,15 6,15 L7,15 C7.55228475,15 8,15.4477153 8,16 C8,16.5522847 7.55228475,17 7,17 Z" id="Shape" fill="#428DFF"/><path d="M21,17 L11,17 C10.4477153,17 10,16.5522847 10,16 C10,15.4477153 10.4477153,15 11,15 L21,15 C21.5522847,15 22,15.4477153 22,16 C22,16.5522847 21.5522847,17 21,17 Z" id="Shape" fill="#428DFF"/><path d="M21,25 L20,25 C19.4477153,25 19,24.5522847 19,24 C19,23.4477153 19.4477153,23 20,23 L21,23 C21.5522847,23 22,23.4477153 22,24 C22,24.5522847 21.5522847,25 21,25 Z" id="Shape" fill="#428DFF"/><path d="M16,25 L6,25 C5.44771525,25 5,24.5522847 5,24 C5,23.4477153 5.44771525,23 6,23 L16,23 C16.5522847,23 17,23.4477153 17,24 C17,24.5522847 16.5522847,25 16,25 Z" id="Shape" fill="#428DFF"/><path d="M12,21 L6,21 C5.44771525,21 5,20.5522847 5,20 C5,19.4477153 5.44771525,19 6,19 L12,19 C12.5522847,19 13,19.4477153 13,20 C13,20.5522847 12.5522847,21 12,21 Z" id="Shape" fill="#428DFF"/><path d="M25,21 L16,21 C15.4477153,21 15,20.5522847 15,20 C15,19.4477153 15.4477153,19 16,19 L25,19 C25.5522847,19 26,19.4477153 26,20 C26,20.5522847 25.5522847,21 25,21 Z" id="Shape" fill="#428DFF"/></g></g></svg>