<?xml version="1.0" encoding="UTF-8"?>
<svg xmlns="http://www.w3.org/2000/svg" xmlns:xlink="http://www.w3.org/1999/xlink" width="512" height="512" viewBox="0 0 60 60" version="1.1"><!-- Generator: Sketch 51.3 (57544) - http://www.bohemiancoding.com/sketch --><title>003 - High Contrast</title><desc>Created with Sketch.</desc><defs><linearGradient x1="0.014%" y1="5.84%" x2="85.328%" y2="112.4825%" id="linearGradient-1"><stop stop-color="#D3DFF2" offset="0%"/><stop stop-color="#D3DFF2" offset="17.2%"/><stop stop-color="#D3DFF2" offset="20%"/><stop stop-color="#DAE2F2" offset="20%"/><stop stop-color="#EBEAF2" offset="20.1%"/><stop stop-color="#F6EFF2" offset="20.1%"/><stop stop-color="#FDF2F2" offset="20.2%"/><stop stop-color="#FFF3F2" offset="20.5%"/><stop stop-color="#FFF3F2" offset="25.2%"/><stop stop-color="#FFF3F2" offset="26%"/><stop stop-color="#D3DFF2" offset="26%"/><stop stop-color="#D3DFF2" offset="39.7%"/><stop stop-color="#D3DFF2" offset="42%"/><stop stop-color="#DAE2F2" offset="42%"/><stop stop-color="#EBEAF2" offset="42.1%"/><stop stop-color="#F6EFF2" offset="42.1%"/><stop stop-color="#FDF2F2" offset="42.2%"/><stop stop-color="#FFF3F2" offset="42.5%"/><stop stop-color="#FFF3F2" offset="48.9%"/><stop stop-color="#FFF3F2" offset="50%"/><stop stop-color="#F8F0F2" offset="50%"/><stop stop-color="#E7E8F2" offset="50%"/><stop stop-color="#DCE3F2" offset="50%"/><stop stop-color="#D5E0F2" offset="50%"/><stop stop-color="#D3DFF2" offset="50.1%"/><stop stop-color="#D3DFF2" offset="70.6%"/><stop stop-color="#D3DFF2" offset="74%"/><stop stop-color="#FFF3F2" offset="74.1%"/><stop stop-color="#FFF3F2" offset="83.5%"/><stop stop-color="#FFF3F2" offset="85%"/><stop stop-color="#D3DFF2" offset="85.1%"/></linearGradient></defs><g id="Page-1" stroke="none" stroke-width="1" fill="none" fill-rule="evenodd"><g id="003---High-Contrast" fill-rule="nonzero"><path d="M51,26 L51,45 C51,47.209139 49.209139,49 47,49 L5,49 C2.790861,49 1,47.209139 1,45 L1,13 C1,10.790861 2.790861,9 5,9 L34,9" id="Shape" fill="url(#linearGradient-1)"/><rect id="Rectangle-path" fill="#A4C2F7" x="48" y="27" width="3" height="19"/><rect id="Rectangle-path" fill="#CAD9FC" x="22" y="47" width="8" height="10"/><path d="M41.68,25.74 C41.646643,25.5864402 41.5781893,25.4426873 41.48,25.32 C39.68,23.07 33.43,16 26,16 C18.57,16 12.32,23.07 10.52,25.32 C10.2132584,25.7214452 10.2132584,26.2785548 10.52,26.68 C12.32,28.93 18.57,36 26,36 C33.43,36 39.68,28.93 41.48,26.68 C41.5781893,26.5573127 41.646643,26.4135598 41.68,26.26" id="Shape" fill="#7FACFA"/><path d="M38,25.74 C37.9760823,25.5915678 37.9241603,25.4490367 37.847,25.32 C36.469,23.07 31.684,16 26,16 C20.316,16 15.528,23.07 14.15,25.32 C13.9150196,25.7428834 13.9150196,26.2571166 14.15,26.68 C15.524,28.93 20.309,36 26,36 C31.691,36 36.473,28.93 37.851,26.68 C37.9267597,26.5506728 37.9773188,26.4081574 38,26.26" id="Shape" fill="#FFFFFF"/><circle id="Oval" fill="#7FACFA" cx="26" cy="26" r="6"/><circle id="Oval" fill="#7FACFA" cx="26" cy="26" r="2"/><path d="M42,58 L42,59 L10,59 L10,58 C10,56.3431458 11.3431458,55 13,55 L39,55 C40.6568542,55 42,56.3431458 42,58 Z" id="Shape" fill="#CAD9FC"/><path d="M39,58 L39,59 L10,59 L10,58 C10,56.3431458 11.3431458,55 13,55 L36,55 C37.6568542,55 39,56.3431458 39,58 Z" id="Shape" fill="#E8EDFC"/><path d="M51,42 L51,45 C51,47.209139 49.209139,49 47,49 L5,49 C2.790861,49 1,47.209139 1,45 L1,42 L51,42 Z" id="Shape" fill="#CAD9FC"/><path d="M48,42 L48,45 C48,47.209139 46.209139,49 44,49 L5,49 C2.790861,49 1,47.209139 1,45 L1,42 L48,42 Z" id="Shape" fill="#E8EDFC"/><circle id="Oval" fill="#FFFFFF" cx="23.5" cy="23.5" r="1.5"/><path d="M59,14 C59,21.1797017 53.1797017,27 46,27 L46,1 C53.1797017,1 59,6.82029825 59,14 Z" id="Shape" fill="#A4C2F7"/><path d="M56,14 C56.0004121,20.0243673 51.8617607,25.2597614 46,26.65 L46,1.35 C51.8617607,2.74023861 56.0004121,7.97563266 56,14 Z" id="Shape" fill="#CAD9FC"/><path d="M46,1 L46,27 C38.8202983,27 33,21.1797017 33,14 C33,6.82029825 38.8202983,1 46,1 Z" id="Shape" fill="#A4C2F7"/><path d="M34,9 L37,9 C38.8128346,4.65966334 42.8277637,1.63623054 47.5,1.093 C41.734966,0.39799607 36.2137789,3.6317758 34,9 Z" id="Shape" fill="#FFFFFF"/><path d="M5,49 L8,49 C5.790861,49 4,47.209139 4,45 L4,13 C4,10.790861 5.790861,9 8,9 L5,9 C2.790861,9 1,10.790861 1,13 L1,45 C1,47.209139 2.790861,49 5,49 Z" id="Shape" fill="#FFFFFF"/><path d="M13,58 C13,56.3431458 14.3431458,55 16,55 L13,55 C11.3431458,55 10,56.3431458 10,58 L10,59 L13,59 L13,58 Z" id="Shape" fill="#FFFFFF"/><polygon id="Shape" fill="#FFFFFF" points="2 13 2 26 2 45 0 45 0 26 0 13"/><path d="M1,18 C1.55228475,18 2,17.5522847 2,17 L2,13 L0,13 L0,17 C6.76353751e-17,17.5522847 0.44771525,18 1,18 Z" id="Shape" fill="#428DFF"/><path d="M0,45 L2,45 L2,25 C2,24.4477153 1.55228475,24 1,24 C0.44771525,24 6.76353751e-17,24.4477153 0,25 L0,45 Z" id="Shape" fill="#428DFF"/><path d="M2,21 C1.99611961,20.7352731 1.89256504,20.481743 1.71,20.29 L1.56,20.17 C1.50427287,20.1321227 1.44373808,20.1018554 1.38,20.08 C1.32333758,20.0511123 1.26266255,20.0308873 1.2,20.02 C1.13385548,20.0088692 1.06703885,20.0021875 1,20 C0.735273141,20.0038804 0.481742984,20.107435 0.29,20.29 C0.199603156,20.3856071 0.12832305,20.4976187 0.08,20.62 C-0.0708765757,20.9929737 0.0113519394,21.4197788 0.29,21.71 C0.385607086,21.8003968 0.497618681,21.871677 0.62,21.92 C0.740222313,21.971241 0.869322743,21.99842 1,22 C1.26472686,21.9961196 1.51825702,21.892565 1.71,21.71 C1.89256504,21.518257 1.99611961,21.2647269 2,21 Z" id="Shape" fill="#428DFF"/><path d="M1,14 C0.44771525,14 6.76353751e-17,13.5522847 0,13 C0.00330611633,10.2399468 2.23994685,8.00330612 5,8 L34,8 C34.5522847,8 35,8.44771525 35,9 C35,9.55228475 34.5522847,10 34,10 L5,10 C3.34314575,10 2,11.3431458 2,13 C2,13.5522847 1.55228475,14 1,14 Z" id="Shape" fill="#428DFF"/><path d="M47,50 L5,50 C2.23994685,49.9966939 0.00330611633,47.7600532 0,45 C-1.77991544e-16,44.4477153 0.44771525,44 1,44 C1.55228475,44 2,44.4477153 2,45 C2,46.6568542 3.34314575,48 5,48 L47,48 C48.6568542,48 50,46.6568542 50,45 L50,26 C50,25.4477153 50.4477153,25 51,25 C51.5522847,25 52,25.4477153 52,26 L52,45 C51.9966939,47.7600532 49.7600532,49.9966939 47,50 Z" id="Shape" fill="#428DFF"/><path d="M42,60 L10,60 C9.44771525,60 9,59.5522847 9,59 L9,58 C9,55.790861 10.790861,54 13,54 L39,54 C41.209139,54 43,55.790861 43,58 L43,59 C43,59.5522847 42.5522847,60 42,60 Z M11,58 L41,58 C41,56.8954305 40.1045695,56 39,56 L13,56 C11.8954305,56 11,56.8954305 11,58 Z" id="Shape" fill="#428DFF"/><path d="M30,56 L22,56 C21.4477153,56 21,55.5522847 21,55 L21,49 C21,48.4477153 21.4477153,48 22,48 L30,48 C30.5522847,48 31,48.4477153 31,49 L31,55 C31,55.5522847 30.5522847,56 30,56 Z M23,54 L29,54 L29,50 L23,50 L23,54 Z" id="Shape" fill="#428DFF"/><path d="M51,43 L1,43 C0.44771525,43 6.76353751e-17,42.5522847 0,42 C-6.76353751e-17,41.4477153 0.44771525,41 1,41 L51,41 C51.5522847,41 52,41.4477153 52,42 C52,42.5522847 51.5522847,43 51,43 Z" id="Shape" fill="#428DFF"/><path d="M46,28 C38.2680135,28 32,21.7319865 32,14 C32,6.2680135 38.2680135,1.42034288e-15 46,0 C53.7319865,-1.42034288e-15 60,6.2680135 60,14 C59.9917327,21.7285595 53.7285595,27.9917327 46,28 Z M46,2 C39.372583,2 34,7.372583 34,14 C34,20.627417 39.372583,26 46,26 C52.627417,26 58,20.627417 58,14 C57.9928352,7.37555305 52.624447,2.00716485 46,2 Z" id="Shape" fill="#428DFF"/><path d="M46,28 C45.4477153,28 45,27.5522847 45,27 L45,1 C45,0.44771525 45.4477153,1.01453063e-16 46,0 C46.5522847,-1.01453063e-16 47,0.44771525 47,1 L47,27 C47,27.5522847 46.5522847,28 46,28 Z" id="Shape" fill="#428DFF"/><path d="M42,15 L38,15 C37.4477153,15 37,14.5522847 37,14 C37,13.4477153 37.4477153,13 38,13 L42,13 C42.5522847,13 43,13.4477153 43,14 C43,14.5522847 42.5522847,15 42,15 Z" id="Shape" fill="#428DFF"/><path d="M54,15 L50,15 C49.4477153,15 49,14.5522847 49,14 C49,13.4477153 49.4477153,13 50,13 L54,13 C54.5522847,13 55,13.4477153 55,14 C55,14.5522847 54.5522847,15 54,15 Z" id="Shape" fill="#428DFF"/><path d="M52,17 C51.4477153,17 51,16.5522847 51,16 L51,12 C51,11.4477153 51.4477153,11 52,11 C52.5522847,11 53,11.4477153 53,12 L53,16 C53,16.5522847 52.5522847,17 52,17 Z" id="Shape" fill="#428DFF"/><path d="M26,37 C18.108,37 11.559,29.579 9.739,27.305 C9.13795065,26.5399299 9.13795065,25.4630701 9.739,24.698 C11.559,22.421 18.108,15 26,15 C28.9443983,15.074535 31.8114625,15.9581457 34.287,17.554 C34.7597557,17.8395312 34.9115312,18.4542443 34.626,18.927 C34.3404688,19.3997557 33.7257557,19.5515312 33.253,19.266 C31.0884744,17.8606944 28.5795636,17.0768544 26,17 C19,17 12.979,23.846 11.3,25.944 C11.2800396,25.9793788 11.2800396,26.0226212 11.3,26.058 C12.979,28.154 19,35 26,35 C33,35 39.021,28.154 40.7,26.056 C40.810457,25.5142087 41.3392087,25.1645431 41.881,25.2750001 C42.4227913,25.385457 42.7724569,25.9142087 42.662,26.456 C42.5981671,26.7594134 42.4654126,27.0440829 42.274,27.288 C40.441,29.579 33.892,37 26,37 Z" id="Shape" fill="#428DFF"/><path d="M26,33 C22.1340068,33 19,29.8659932 19,26 C19,22.1340068 22.1340068,19 26,19 C29.8659932,19 33,22.1340068 33,26 C32.9955914,29.8641657 29.8641657,32.9955914 26,33 Z M26,21 C23.2385763,21 21,23.2385763 21,26 C21,28.7614237 23.2385763,31 26,31 C28.7614237,31 31,28.7614237 31,26 C30.9966939,23.2399468 28.7600532,21.0033061 26,21 Z" id="Shape" fill="#428DFF"/><path d="M26,29 C24.3431458,29 23,27.6568542 23,26 C23,24.3431458 24.3431458,23 26,23 C27.6568542,23 29,24.3431458 29,26 C29,27.6568542 27.6568542,29 26,29 Z M26,25 C25.4477153,25 25,25.4477153 25,26 C25,26.5522847 25.4477153,27 26,27 C26.5522847,27 27,26.5522847 27,26 C27,25.4477153 26.5522847,25 26,25 Z" id="Shape" fill="#428DFF"/></g></g></svg>