<svg height="512" viewBox="0 0 60 60" width="512" xmlns="http://www.w3.org/2000/svg"><g id="Page-1" fill="none" fill-rule="evenodd"><g id="023---Pointer" fill-rule="nonzero"><path id="Shape" d="m27.11 49 3.355 4.575c.2243875.302935.600071.453934.9716922.3905534.3716211-.0633805.6760165-.3303679.7873078-.6905534l10.731-34.983c.1069559-.353015.0108933-.7362438-.2499314-.9970686-.2608248-.2608247-.6440536-.3568873-.9970686-.2499314l-34.985 10.731c-.36018554.1112913-.6271729.4156867-.69055343.7873078-.06338052.3716212.08761841.7473047.39055343.9716922l8.045 5.9c.2343293.1726814.3817878.4388945.4038778.7291377.0220899.2902432-.0833813.5757064-.2888778.7818623l-13.291 13.292c-.38905089.3902698-.38905089 1.0217302 0 1.412l3.529 3.529 3.529 3.529c.39026975.3890509 1.02173025.3890509 1.412 0l13.293-13.293c.2061559-.2054965.4916191-.3109677.7818623-.2888778.2902432.02209.5564563.1695485.7291377.4038778z" fill="#e8edfc"/><path id="Shape" d="m21.566 45.53c-.1726814-.2343293-.4388945-.3817878-.7291377-.4038778-.2902432-.0220899-.5757064.0833813-.7818623.2888778l-12.5 12.5.794.8c.39026975.3890509 1.02173025.3890509 1.412 0l12.386-12.392z" fill="#cad9fc"/><path id="Shape" d="m41.708 17.045-1.8.553c.1014002.2173642.1188524.4645445.049.694l-10.429 34 .939 1.281c.2243875.302935.600071.453934.9716922.3905534.3716211-.0633805.6760165-.3303679.7873078-.6905534l10.729-34.981c.1069559-.353015.0108933-.7362438-.2499314-.9970686-.2608248-.2608247-.6440536-.3568873-.9970686-.2499314z" fill="#cad9fc"/><path id="Rectangle-path" d="m.121 46.41h8v2h-8z" fill="#fff" transform="matrix(.707 -.707 .707 .707 -32.317 16.8)"/><g fill="#428dff"><path id="Shape" d="m59 13h-4c-.5522847 0-1 .4477153-1 1s.4477153 1 1 1h4c.5522847 0 1-.4477153 1-1s-.4477153-1-1-1z"/><path id="Shape" d="m33 13c-.5522847 0-1 .4477153-1 1s.4477153 1 1 1h4c.5522847 0 1-.4477153 1-1s-.4477153-1-1-1z"/><path id="Shape" d="m53.071 19.657c-.3923789-.3789722-1.0160848-.3735524-1.4018186.0121814s-.3911536 1.0094397-.0121814 1.4018186l2.828 2.829c.3907415.3907414 1.0242585.3907414 1.415 0 .3907414-.3907415.3907414-1.0242585 0-1.415z"/><path id="Shape" d="m39.636 8.636c.4043959-.00008635.7689341-.2437275.923678-.61734544s.0692299-.80366031-.216678-1.08965456l-2.828-2.829c-.3907415-.39074146-1.0242585-.39074146-1.415 0s-.3907415 1.02425854 0 1.415l2.828 2.828c.1877377.18779456.4424587.29320875.708.293z"/><path id="Shape" d="m46 22c-.5522847 0-1 .4477153-1 1v4c0 .5522847.4477153 1 1 1s1-.4477153 1-1v-4c0-.5522847-.4477153-1-1-1z"/><path id="Shape" d="m47 5v-4c0-.55228475-.4477153-1-1-1s-1 .44771525-1 1v4c0 .55228475.4477153 1 1 1s1-.44771525 1-1z"/><path id="Shape" d="m55.9 4.1c-.3904999-.39038194-1.0235001-.39038194-1.414 0l-2.829 2.829c-.2599566.25107447-.3642126.62287789-.2726972.97250732.0915155.34962944.3645604.6226744.7141899.71418984.3496294.09151544.7214328-.01274058.9725073-.27269716l2.829-2.828c.187777-.18756826.2932867-.44209075.2932867-.7075s-.1055097-.51993174-.2932867-.7075z"/><path id="Shape" d="m4.141 46.41h-.011c-.55451653.0030317-1.0020121.4542122-1.00049624 1.008735.00151585.5545227.45147143 1.00325 1.00599624 1.00325s1.00448039-.4487273 1.00599624-1.00325c.00151586-.5545228-.44597971-1.0057033-1.00049624-1.008735z"/><path id="Shape" d="m7.643 59.415c.78077015.7794319 2.04522985.7794319 2.826 0l13.29-13.293c.3266764.4454177.9525823.5416764 1.398.215s.5416764-.9525823.215-1.398c-.3451884-.4694751-.8779641-.7650561-1.4589907-.80944-.5810266-.044384-1.1525168.1668433-1.5650093.57844l-13.291 13.292-7.057-7.053c.3910176-.3904653.39146532-1.0239824.001-1.415s-1.0239824-.3914653-1.415-.001c-.77943189.7807702-.77943189 2.0452298 0 2.826z"/><path id="Shape" d="m31.272 52.984-3.355-4.575c-.211144-.2888492-.5603483-.443113-.916071-.4046815-.3557228.0384314-.6639212.2637193-.8085.591-.1445788.3272806-.103573.7068323.107571.9956815l3.355 4.576c.3740948.5131089.970998.8163923 1.606.816.1132491.0000786.2263076-.0092872.338-.028.7462459-.1235634 1.357612-.6601079 1.577-1.384l10.735-34.985c.2180523-.7081554.026718-1.4788335-.4972243-2.0027757-.5239422-.5239423-1.2946203-.7152766-2.0027757-.4972243l-34.981 10.734c-.72183232.2218498-1.25716386.8313526-1.38401828 1.5757766-.12685443.7444241.17640003 1.496827.78401828 1.9452234l8.045 5.9-7.633 7.633c-.25995658.2510745-.3642126.6228779-.27269716.9725073.09151544.3496295.3645604.6226744.71418984.7141899.34962943.0915154.72143285-.0127406.97250732-.2726972l7.636-7.636c.4115967-.4124925.622824-.9839827.57844-1.5650093-.0443839-.5810266-.3399649-1.1138023-.80944-1.4589907l-8.045-5.9 34.984-10.728z"/><path id="Shape" d="m18.707 27.237-5.387 1.653c-.5279842.1620956-.8245956.7215158-.6625 1.2495s.7215158.8245956 1.2495.6625l5.386-1.653c.346437-.1006452.6118081-.3800871.6944364-.7312574.0826283-.3511704-.0302971-.7196232-.2955088-.9641857-.2652116-.2445624-.6415908-.3273173-.9849276-.2165569z"/><path id="Shape" d="m24 27.661c.0993599-.0003604.1981113-.015527.293-.045l1.733-.531c.5201696-.1678066.8092449-.7221606.6490836-1.2447348-.1601614-.5225742-.7102171-.8197469-1.2350836-.6672652l-1.733.531c-.4748759.1439378-.7723766.6143317-.6989033 1.1050729s.4956946.8533791.9919033.8519271z"/><path id="Shape" d="m47.97 18.881c.0815433.0001672.162805-.0095708.242-.029 2.3742702-.5939902 3.9695964-2.8193542 3.7698251-5.2586317-.1997714-2.4392775-2.1359159-4.37542197-4.5751934-4.57519335s-4.6646415 1.39555485-5.2586317 3.76982505c-.1333768.5359923.1930077 1.0786232.729 1.212s1.0786232-.1930077 1.212-.729c.3573041-1.423762 1.6923912-2.3798754 3.1553753-2.2597001 1.462984.1201753 2.6241495 1.2813408 2.7443248 2.7443248.1201753 1.4629841-.8359381 2.7980712-2.2597001 3.1553753-.4893901.122648-.8107682.5906407-.7495039 1.0914319.0612643.5007913.4859803.8775105.9905039.8785681z"/></g></g></g></svg>