<?xml version="1.0" encoding="windows-1252"?>
<!-- Generator: Adobe Illustrator 19.0.0, SVG Export Plug-In . SVG Version: 6.00 Build 0)  -->
<svg version="1.1" id="Capa_1" xmlns="http://www.w3.org/2000/svg" xmlns:xlink="http://www.w3.org/1999/xlink" x="0px" y="0px" viewBox="0 0 512 512" style="enable-background:new 0 0 512 512;" xml:space="preserve">
<g>
	<g transform="translate(1 1)">
		<path style="fill:#A4C2F7;" d="M58.733,7.533H485.4c9.426,0,17.067,7.641,17.067,17.067v460.8c0,9.426-7.641,17.067-17.067,17.067    H58.733c-9.426,0-17.067-7.641-17.067-17.067V24.6C41.667,15.174,49.308,7.533,58.733,7.533z"/>
		<path style="fill:#FFFFFF;" d="M24.6,7.533h426.667c9.426,0,17.067,7.641,17.067,17.067v460.8c0,9.426-7.641,17.067-17.067,17.067    H24.6c-9.426,0-17.067-7.641-17.067-17.067V24.6C7.533,15.174,15.174,7.533,24.6,7.533z"/>
		<path style="fill:#E3E7F2;" d="M50.2,7.533h409.6c9.426,0,17.067,7.641,17.067,17.067v460.8c0,9.426-7.641,17.067-17.067,17.067    H50.2c-9.426,0-17.067-7.641-17.067-17.067V24.6C33.133,15.174,40.774,7.533,50.2,7.533z"/>
	</g>
	<g>
		<path style="fill:#428DFF;" d="M277.498,252.748L241.919,332.8h-18.152c-4.713,0-8.533,3.82-8.533,8.533s3.82,8.533,8.533,8.533    h23.673l0.019,0.004l0.029-0.004h23.679c4.713,0,8.533-3.821,8.533-8.533s-3.82-8.533-8.533-8.533H260.6l30.342-68.267h102.683    l30.342,68.267h-10.575c-4.713,0-8.533,3.82-8.533,8.533s3.82,8.533,8.533,8.533h23.687l0.029,0.004l0.019-0.004H460.8    c4.713,0,8.533-3.821,8.533-8.533s-3.82-8.533-8.533-8.533h-18.152L407.1,252.819l-0.127-0.288l-51.556-115.997h10.567    c4.713,0,8.533-3.821,8.533-8.533c0-4.713-3.821-8.533-8.533-8.533h-47.408c-4.713,0-8.533,3.821-8.533,8.533    c0,4.713,3.82,8.533,8.533,8.533h10.575l-51.589,116.072L277.498,252.748z M298.527,247.467l43.756-98.451l43.756,98.451H298.527z    "/>
		<path style="fill:#428DFF;" d="M108.092,128c0.001-2.263-0.898-4.434-2.499-6.035c-1.6-1.6-3.771-2.499-6.035-2.499H52.15    c-3.049,0-5.866,1.626-7.39,4.267c-1.524,2.64-1.524,5.893,0,8.533c1.524,2.64,4.341,4.267,7.39,4.267h18.152L157.533,332.8    h-10.567c-4.713,0-8.533,3.82-8.533,8.533s3.82,8.533,8.533,8.533h23.673l0.019,0.004l0.008-0.001l0.009,0.001l0.019-0.004h23.673    c4.713,0,8.533-3.821,8.533-8.533s-3.821-8.533-8.533-8.533H183.8l87.231-196.267h18.152c4.713,0,8.533-3.821,8.533-8.533    c0-4.713-3.82-8.533-8.533-8.533h-47.408c-4.713,0-8.533,3.821-8.533,8.533c0,4.713,3.821,8.533,8.533,8.533h10.575    l-81.683,183.784L88.983,136.533h10.575c2.263,0.001,4.434-0.898,6.035-2.499C107.194,132.434,108.092,130.263,108.092,128z"/>
		<path style="fill:#428DFF;" d="M43.325,406.34c-0.08,0.193-0.075,0.401-0.14,0.597c-0.229,0.686-0.368,1.399-0.412,2.12    c-0.03,0.286-0.044,0.573-0.044,0.86c0.026,0.92,0.202,1.83,0.523,2.693c0.029,0.074,0.027,0.153,0.057,0.226l0.007,0.03    l0.015,0.023c0.031,0.074,0.089,0.129,0.121,0.203c0.382,0.835,0.899,1.601,1.529,2.269c0.077,0.083,0.111,0.198,0.192,0.278    L79.3,449.766c2.149,2.188,5.307,3.055,8.271,2.27c2.965-0.785,5.28-3.1,6.065-6.065c0.785-2.965-0.082-6.122-2.27-8.271    L71.8,418.133h368.4L420.633,437.7c-2.178,2.151-3.037,5.304-2.251,8.262s3.097,5.269,6.055,6.055    c2.958,0.786,6.111-0.073,8.262-2.251l34.127-34.127c0.081-0.08,0.115-0.195,0.192-0.278c0.628-0.666,1.143-1.43,1.525-2.262    c0.033-0.076,0.094-0.133,0.127-0.211l0.013-0.022l0.007-0.03c0.03-0.073,0.028-0.151,0.056-0.225    c0.321-0.864,0.499-1.774,0.525-2.695c0-0.286-0.014-0.572-0.044-0.857c-0.045-0.723-0.184-1.437-0.414-2.123    c-0.065-0.196-0.06-0.403-0.139-0.595c-0.049-0.118-0.134-0.209-0.189-0.324c-0.399-0.893-0.949-1.709-1.627-2.414l-0.033-0.043    L432.7,369.434c-3.341-3.281-8.701-3.256-12.012,0.054c-3.311,3.311-3.335,8.671-0.054,12.012l19.566,19.567H71.8L91.367,381.5    c3.296-3.338,3.279-8.711-0.038-12.029c-3.317-3.317-8.691-3.334-12.029-0.038l-34.127,34.127l-0.033,0.043    c-0.678,0.704-1.228,1.521-1.627,2.414C43.458,406.132,43.373,406.222,43.325,406.34z"/>
		<path style="fill:#428DFF;" d="M486.4,0H25.6C11.468,0.015,0.015,11.468,0,25.6v51.2c0,4.713,3.821,8.533,8.533,8.533    s8.533-3.82,8.533-8.533V25.6c0.005-4.711,3.822-8.529,8.533-8.533h460.8c4.711,0.005,8.529,3.822,8.533,8.533v460.8    c-0.005,4.711-3.822,8.529-8.533,8.533H25.6c-4.711-0.005-8.529-3.822-8.533-8.533V145.067c0-4.713-3.821-8.533-8.533-8.533    S0,140.354,0,145.067V486.4c0.015,14.132,11.468,25.585,25.6,25.6h460.8c14.132-0.015,25.585-11.468,25.6-25.6V25.6    C511.985,11.468,500.532,0.015,486.4,0z"/>
		<circle style="fill:#428DFF;" cx="8.533" cy="110.933" r="8.533"/>
	</g>
</g>
<g>
</g>
<g>
</g>
<g>
</g>
<g>
</g>
<g>
</g>
<g>
</g>
<g>
</g>
<g>
</g>
<g>
</g>
<g>
</g>
<g>
</g>
<g>
</g>
<g>
</g>
<g>
</g>
<g>
</g>
</svg>