<?xml version="1.0" encoding="windows-1252"?>
<!-- Generator: Adobe Illustrator 19.0.0, SVG Export Plug-In . SVG Version: 6.00 Build 0)  -->
<svg version="1.1" id="Capa_1" xmlns="http://www.w3.org/2000/svg" xmlns:xlink="http://www.w3.org/1999/xlink" x="0px" y="0px" viewBox="0 0 511.86 511.86" style="enable-background:new 0 0 511.86 511.86;" xml:space="preserve">
<g>
	<path style="fill:#7FACFA;" d="M323.41,64.735l-36.513,20.682v24.387L227.207,6.866l-0.134,0.067l-38.535,21.895l-0.067-0.269   V54.63c-27.216-7.747-51.536-5.457-70.737,5.524l-2.559,1.482L81.018,81.039l-1.954,1.078   c-28.092,15.832-45.406,50.257-45.406,99.301c0,98.021,69.322,217.533,154.813,266.846l38.603-21.962v-24.32l59.688,102.872   l0.135,0.269l36.513-20.682v-27.958c36.649,11.048,68.245,4.109,89.533-17.853h0.067c39.411-9.364,65.145-47.36,65.145-107.048   C478.155,233.561,408.901,114.049,323.41,64.735z M382.492,386.15h-0.067c-20.764,1.66-41.499-3.547-59.015-14.821V306.79   l-36.513,20.749v-0.067L213.6,369.173C157.819,329.359,114.5,249.797,114.5,183.843c-0.98-20.307,4.671-40.383,16.102-57.196   c20.394-1.254,40.659,4.007,57.868,15.023v64.539l38.603-21.962l38.804-22.097l34.425-19.604   c55.781,39.747,99.099,119.377,99.099,185.331C400.427,348.644,394.475,369.157,382.492,386.15L382.492,386.15z"/>
	
		<linearGradient id="SVGID_1_" gradientUnits="userSpaceOnUse" x1="-48.6711" y1="652.3986" x2="-47.8706" y2="651.6315" gradientTransform="matrix(232.2193 0 0 -419.7052 11379.8066 273898.1875)">
		<stop offset="0" style="stop-color:#D4E1F4"/>
		<stop offset="0.1717" style="stop-color:#D4E1F4"/>
		<stop offset="0.2" style="stop-color:#D4E1F4"/>
		<stop offset="0.2001" style="stop-color:#DAE4F4"/>
		<stop offset="0.2007" style="stop-color:#EBEBF4"/>
		<stop offset="0.2014" style="stop-color:#F6F1F4"/>
		<stop offset="0.2023" style="stop-color:#FDF4F4"/>
		<stop offset="0.205" style="stop-color:#FFF5F4"/>
		<stop offset="0.2522" style="stop-color:#FFF5F4"/>
		<stop offset="0.26" style="stop-color:#FFF5F4"/>
		<stop offset="0.26" style="stop-color:#D4E1F4"/>
		<stop offset="0.3974" style="stop-color:#D4E1F4"/>
		<stop offset="0.42" style="stop-color:#D4E1F4"/>
		<stop offset="0.4201" style="stop-color:#DAE4F4"/>
		<stop offset="0.4207" style="stop-color:#EBEBF4"/>
		<stop offset="0.4214" style="stop-color:#F6F1F4"/>
		<stop offset="0.4223" style="stop-color:#FDF4F4"/>
		<stop offset="0.425" style="stop-color:#FFF5F4"/>
		<stop offset="0.4894" style="stop-color:#FFF5F4"/>
		<stop offset="0.5" style="stop-color:#FFF5F4"/>
		<stop offset="0.5" style="stop-color:#F9F2F4"/>
		<stop offset="0.5001" style="stop-color:#E8EBF4"/>
		<stop offset="0.5003" style="stop-color:#DDE5F4"/>
		<stop offset="0.5005" style="stop-color:#D6E2F4"/>
		<stop offset="0.501" style="stop-color:#D4E1F4"/>
		<stop offset="0.7062" style="stop-color:#D4E1F4"/>
		<stop offset="0.74" style="stop-color:#D4E1F4"/>
		<stop offset="0.741" style="stop-color:#FFF5F4"/>
		<stop offset="0.8346" style="stop-color:#FFF5F4"/>
		<stop offset="0.85" style="stop-color:#FFF5F4"/>
		<stop offset="0.851" style="stop-color:#D4E1F4"/>
	</linearGradient>
	<path style="fill:url(#SVGID_1_);" d="M265.878,162.15l-38.804,22.097l-38.603,21.962V141.67   c-17.209-11.016-37.474-16.277-57.868-15.023c-32.809,3.705-54.704,32.202-54.704,79.158c0,71.141,50.459,158.248,112.573,194.021   v48.438C102.981,398.95,33.658,279.439,33.658,181.418c0-49.044,17.314-83.469,45.406-99.301l1.954-1.078   c27.824-14.754,65.684-11.857,107.453,12.261V28.559l0.067,0.269l76.598,132.042L265.878,162.15z"/>
	<g>
		<path style="fill:#7FACFA;" d="M382.424,386.15c-19.874,25.128-55.242,29.103-95.528,5.861l36.513-20.682    C340.926,382.603,361.66,387.81,382.424,386.15z"/>
		<polygon style="fill:#7FACFA;" points="323.412,306.79 323.412,371.329 286.899,392.011 286.899,327.54   "/>
	</g>
	
		<linearGradient id="SVGID_2_" gradientUnits="userSpaceOnUse" x1="-48.7426" y1="652.324" x2="-47.9421" y2="651.5568" gradientTransform="matrix(232.2189 0 0 -419.7053 11555.5498 273955.0625)">
		<stop offset="0" style="stop-color:#D4E1F4"/>
		<stop offset="0.1717" style="stop-color:#D4E1F4"/>
		<stop offset="0.2" style="stop-color:#D4E1F4"/>
		<stop offset="0.2001" style="stop-color:#DAE4F4"/>
		<stop offset="0.2007" style="stop-color:#EBEBF4"/>
		<stop offset="0.2014" style="stop-color:#F6F1F4"/>
		<stop offset="0.2023" style="stop-color:#FDF4F4"/>
		<stop offset="0.205" style="stop-color:#FFF5F4"/>
		<stop offset="0.2522" style="stop-color:#FFF5F4"/>
		<stop offset="0.26" style="stop-color:#FFF5F4"/>
		<stop offset="0.26" style="stop-color:#D4E1F4"/>
		<stop offset="0.3974" style="stop-color:#D4E1F4"/>
		<stop offset="0.42" style="stop-color:#D4E1F4"/>
		<stop offset="0.4201" style="stop-color:#DAE4F4"/>
		<stop offset="0.4207" style="stop-color:#EBEBF4"/>
		<stop offset="0.4214" style="stop-color:#F6F1F4"/>
		<stop offset="0.4223" style="stop-color:#FDF4F4"/>
		<stop offset="0.425" style="stop-color:#FFF5F4"/>
		<stop offset="0.4894" style="stop-color:#FFF5F4"/>
		<stop offset="0.5" style="stop-color:#FFF5F4"/>
		<stop offset="0.5" style="stop-color:#F9F2F4"/>
		<stop offset="0.5001" style="stop-color:#E8EBF4"/>
		<stop offset="0.5003" style="stop-color:#DDE5F4"/>
		<stop offset="0.5005" style="stop-color:#D6E2F4"/>
		<stop offset="0.501" style="stop-color:#D4E1F4"/>
		<stop offset="0.7062" style="stop-color:#D4E1F4"/>
		<stop offset="0.74" style="stop-color:#D4E1F4"/>
		<stop offset="0.741" style="stop-color:#FFF5F4"/>
		<stop offset="0.8346" style="stop-color:#FFF5F4"/>
		<stop offset="0.85" style="stop-color:#FFF5F4"/>
		<stop offset="0.851" style="stop-color:#D4E1F4"/>
	</linearGradient>
	<path style="fill:url(#SVGID_2_);" d="M441.642,352.264c0,38.4-10.577,67.773-28.632,86.366h-0.067   c-21.288,21.962-52.884,28.901-89.533,17.853c-7.097-2.191-14.049-4.823-20.817-7.882v-0.067   c-5.119-2.358-10.374-5.053-15.696-8.152v64.741l-0.135-0.269l-59.688-102.872l-10.509-18.122l-6.401-11.048l-0.741-1.28   l4.177-2.358l73.297-41.701v64.539c40.286,23.242,75.655,19.268,95.528-5.861h0.067c11.982-16.993,17.935-37.506,16.909-58.274   c0-65.954-43.317-145.583-99.099-185.331c-4.379-3.166-8.893-6.063-13.406-8.691V85.418c15.177,8.855,29.36,19.312,42.307,31.191   c0,0.067,0.067,0.067,0.135,0.067c53.164,49.33,90.272,113.502,106.51,184.186v0.067   C439.625,317.782,441.567,334.993,441.642,352.264z"/>
	<g>
		<path style="fill:#7FACFA;" d="M323.41,456.483v27.958l-36.513,20.682v-64.741c5.322,3.099,10.577,5.794,15.696,8.152v0.067    C309.361,451.66,316.313,454.292,323.41,456.483z"/>
		<polygon style="fill:#7FACFA;" points="227.075,401.982 227.075,426.302 188.473,448.264 188.473,399.826 216.566,383.86   "/>
		<path style="fill:#7FACFA;" d="M188.471,54.63V93.3c-41.768-24.118-79.628-27.015-107.452-12.261l34.156-19.402l2.559-1.482    C136.934,49.173,161.254,46.883,188.471,54.63z"/>
	</g>
	<g>
		<path style="fill:#FFFFFF;" d="M53.869,188.154c0,90.139,58.678,198.535,134.602,253.642v6.467    C102.981,398.95,33.658,279.439,33.658,181.418c0-49.044,17.314-83.469,45.406-99.301l1.954-1.078l34.156-19.402l2.559-1.482    c19.201-10.981,43.521-13.272,70.737-5.524v2.695c-17.429-2.214-35.113,1.134-50.526,9.566l-2.559,1.482l-7.209,4.109    l-26.947,15.293l-1.954,1.078C71.183,104.685,53.869,139.11,53.869,188.154z"/>
		<path style="fill:#FFFFFF;" d="M82.396,88.006c-11.588,6.813-21.1,16.654-27.515,28.467c-6.472,12.214-10.744,25.471-12.62,39.166    c-1.193,8.551-1.808,17.172-1.842,25.806H26.945c0.034-9.3,0.699-18.588,1.99-27.798c2.113-15.297,6.911-30.1,14.174-43.727    c7.623-13.98,18.918-25.614,32.666-33.648L82.396,88.006z"/>
	</g>
	<g>
		<path style="fill:#428DFF;" d="M39.878,127.147c0.64,0.61,1.396,1.084,2.224,1.395c1.668,0.573,3.486,0.525,5.122-0.133    c1.552-0.694,2.807-1.915,3.544-3.447c0.602-1.582,0.636-3.324,0.098-4.929l-0.552-1.137c-0.226-0.39-0.5-0.749-0.816-1.069    c-0.256-0.342-0.56-0.646-0.903-0.901c-0.362-0.269-0.742-0.514-1.137-0.733c-1.612-0.806-3.479-0.935-5.187-0.359    c-0.868,0.324-1.654,0.834-2.303,1.496c-2.012,2.005-2.669,5-1.679,7.663C38.671,125.808,39.211,126.541,39.878,127.147z"/>
		<path style="fill:#428DFF;" d="M326.79,58.912c-2.07-1.186-4.611-1.196-6.691-0.026l-36.513,20.678l-0.033,0.024l-0.02,0.009    c-0.179,0.103-0.316,0.253-0.482,0.371c-0.323,0.208-0.628,0.443-0.911,0.702c-0.109,0.11-0.182,0.248-0.283,0.365    c-0.291,0.314-0.552,0.656-0.78,1.019c-0.086,0.148-0.123,0.318-0.198,0.472c-0.368,0.609-0.571,1.302-0.591,2.013    c-0.015,0.119-0.038,0.235-0.048,0.355L233.04,3.471c-0.042-0.072-0.117-0.109-0.161-0.179c-1.478-2.544-4.457-3.806-7.313-3.097    c-0.899,0.228-1.737,0.649-2.457,1.233L186.939,21.99l-0.012,0.001c-3.058,0.704-5.225,3.427-5.224,6.566v17.528    c-22.688-5.785-46.721-2.842-67.342,8.248L77.733,75.164l-0.022,0.011l-1.934,1.092l-0.012,0.009    C67.258,81.15,59.685,87.496,53.4,95.02c-1.242,1.377-1.839,3.218-1.642,5.062s1.169,3.517,2.673,4.602    c2.898,2.054,6.871,1.633,9.274-0.982c5.251-6.298,11.58-11.613,18.692-15.696l-0.001-0.002l1.783-1.006    c26.855-14.237,62.684-9.928,100.895,12.118c2.085,1.204,4.653,1.203,6.737,0s3.368-3.428,3.368-5.835V53.654l61.441,105.976    l-32.875,18.73l-0.039,0.03l-28.526,16.259v-53.007c-0.002-2.408-1.289-4.633-3.375-5.836    c-18.46-11.699-40.151-17.249-61.961-15.855c-37.447,4.257-60.711,37.151-60.711,85.836c0,4.545,0.198,9.148,0.595,13.808    c0.127,1.514,0.391,3.057,0.558,4.579c0.346,3.16,0.664,6.313,1.178,9.505c0.297,1.843,0.736,3.705,1.087,5.556    c0.55,2.9,1.053,5.794,1.733,8.709c0.462,1.984,1.061,3.971,1.582,5.958c0.733,2.794,1.418,5.586,2.262,8.382    c0.623,2.064,1.375,4.118,2.058,6.179c0.9,2.718,1.756,5.437,2.757,8.144c0.771,2.087,1.66,4.151,2.488,6.229    c1.063,2.664,2.086,5.334,3.239,7.979c0.913,2.09,1.932,4.146,2.9,6.22c1.21,2.594,2.385,5.197,3.678,7.762    c1.049,2.079,2.194,4.11,3.295,6.167c1.345,2.511,2.66,5.032,4.081,7.503c1.173,2.041,2.433,4.023,3.657,6.034    c1.472,2.419,2.916,4.85,4.457,7.22c1.294,1.99,2.664,3.911,4.005,5.863c1.584,2.305,3.143,4.625,4.789,6.873    c1.409,1.925,2.886,3.772,4.339,5.652c1.679,2.173,3.34,4.362,5.076,6.47c1.52,1.847,3.099,3.605,4.66,5.398    c1.762,2.024,3.509,4.063,5.321,6.014c1.621,1.746,3.294,3.397,4.952,5.081c1.836,1.863,3.658,3.74,5.537,5.523    c1.715,1.627,3.473,3.152,5.221,4.708c1.9,1.69,3.788,3.393,5.725,4.995c1.795,1.484,3.624,2.861,5.449,4.265    c1.955,1.505,3.901,3.021,5.887,4.43c1.869,1.326,3.766,2.538,5.661,3.775c1.454,0.949,2.877,2.002,4.345,2.897v32.539    C102.921,384.748,40.421,273.274,40.421,181.445l-0.002-0.009c0.033-8.631,0.648-17.25,1.841-25.798l1.086-6.347    c0.645-3.572-1.615-7.025-5.146-7.864c-1.775-0.41-3.641-0.078-5.166,0.92c-1.525,0.997-2.577,2.574-2.912,4.365l-1.187,6.934    c-1.291,9.21-1.956,18.498-1.99,27.798h0.002v0.001c0,100.007,70.934,222.316,158.125,272.645c0.349,0.182,0.714,0.333,1.09,0.45    c0.184,0.067,0.357,0.175,0.545,0.225c1.128,0.301,2.316,0.302,3.445,0.003c0.333-0.107,0.658-0.239,0.971-0.395    c0.22-0.076,0.435-0.164,0.646-0.263l0.021-0.013l0.018-0.007l0.013-0.01l38.585-21.931c1.909-1.102,3.153-3.073,3.329-5.27    l47.178,81.316c0.023,0.046,0.063,0.079,0.087,0.124c0.194,0.336,0.418,0.653,0.668,0.95c0.123,0.18,0.256,0.354,0.396,0.521    c0.276,0.266,0.574,0.507,0.891,0.722c0.172,0.126,0.321,0.283,0.503,0.392l0.053,0.04c0.327,0.169,0.668,0.311,1.018,0.423    c0.2,0.076,0.383,0.189,0.59,0.246c0.582,0.161,1.183,0.244,1.786,0.245c0.532,0.001,1.062-0.063,1.579-0.191l0.038-0.016    c0.594-0.143,1.166-0.368,1.699-0.668l36.513-20.671c2.115-1.193,3.422-3.434,3.421-5.862v-19.225    c34.343,7.961,64.641,0.811,86.26-20.549c42.911-11.257,68.497-53.326,68.497-113.115    C484.915,231.557,413.98,109.248,326.79,58.912z M283.507,139.669c1.345,0.788,2.643,1.621,3.957,2.439l-19.113,10.896    L197.805,31.312l26.925-15.308l55.441,95.638v22.211C280.171,136.246,281.441,138.46,283.507,139.669z M181.704,81.978    c-2.499-1.264-4.987-2.454-7.467-3.571c-0.923-0.417-1.837-0.782-2.757-1.179c-1.552-0.67-3.104-1.349-4.647-1.963    c-1.1-0.439-2.192-0.824-3.289-1.234c-1.342-0.501-2.686-1.014-4.02-1.472c-1.188-0.408-2.365-0.767-3.544-1.141    c-1.229-0.389-2.458-0.785-3.679-1.136c-1.242-0.358-2.472-0.672-3.705-0.991c-1.137-0.294-2.273-0.591-3.402-0.852    c-1.288-0.299-2.567-0.558-3.844-0.814c-1.05-0.21-2.099-0.418-3.144-0.599c-1.331-0.232-2.653-0.431-3.972-0.615    c-0.961-0.134-1.92-0.262-2.875-0.371c-1.373-0.157-2.739-0.289-4.095-0.394c-0.877-0.068-1.75-0.125-2.62-0.17    c-0.773-0.042-1.559-0.127-2.327-0.151c18.407-9.212,39.603-11.173,59.388-5.493V81.978z M185.059,212.064    c2.073,1.208,4.632,1.22,6.717,0.033l38.264-21.808c0.122-0.06,0.255-0.085,0.375-0.153l69.343-39.525    c53.188,39.832,92.92,115.171,92.92,177.282c0.803,18.288-4.04,36.379-13.874,51.819c-17.066,0.643-33.956-3.648-48.646-12.359    v-60.585c-0.001-2.4-1.277-4.618-3.352-5.824c-2.075-1.206-4.634-1.218-6.72-0.031l-35.711,20.346    c-0.274,0.091-0.542,0.2-0.802,0.325l-69.408,39.525c-53.192-39.894-92.921-115.236-92.921-177.281    c-0.747-17.81,3.802-35.442,13.074-50.667c16.639-0.294,33.037,4.009,47.387,12.437v60.645    C181.703,208.642,182.982,210.861,185.059,212.064L185.059,212.064z M364.516,393.302c-1.863,1.155-3.806,2.178-5.813,3.06    c-0.381,0.168-0.752,0.356-1.136,0.515c-2.219,0.904-4.502,1.644-6.83,2.215c-0.456,0.113-0.922,0.204-1.384,0.305    c-2.444,0.548-4.922,0.927-7.418,1.133l-0.125,0.015c-2.662,0.178-5.333,0.185-7.997,0.022c-0.521-0.028-1.041-0.054-1.567-0.094    c-2.77-0.209-5.526-0.573-8.256-1.091c-0.363-0.069-0.733-0.167-1.096-0.241c-2.638-0.542-5.319-1.229-8.041-2.063    c-0.438-0.134-0.87-0.245-1.309-0.386c-2.898-0.93-5.84-2.041-8.816-3.296c-0.607-0.256-1.217-0.531-1.826-0.801    c-0.594-0.262-1.201-0.599-1.796-0.874l22.457-12.755c12.813,7.295,26.915,12.047,41.53,13.997    C364.904,393.083,364.706,393.185,364.516,393.302z M293.645,331.485l23.039-13.125v49.021l-23.039,13.085V331.485z     M83.124,194.543c0.059-0.692,0.109-1.392,0.178-2.074c0.355-3.45,0.849-6.773,1.48-9.968c0.12-0.605,0.262-1.188,0.392-1.783    c0.65-3.067,1.462-6.098,2.434-9.079c0.039-0.119,0.069-0.248,0.109-0.367c0.974-2.84,2.122-5.617,3.437-8.316    c0.247-0.51,0.487-1.026,0.743-1.525c1.25-2.452,2.664-4.816,4.233-7.077c0.266-0.38,0.552-0.734,0.826-1.105    c1.523-2.091,3.197-4.067,5.01-5.912c0.123-0.125,0.235-0.269,0.36-0.392c1.873-1.822,3.892-3.487,6.035-4.981    c0.404-0.286,0.807-0.573,1.219-0.846c2.136-1.419,4.386-2.66,6.725-3.711c0.107-0.048,0.22-0.085,0.327-0.132    c-6.171,14.728-9.191,30.585-8.864,46.55c0,64.697,40.474,142.987,95.211,185.803l-0.046,0.158    c-0.471,1.73-0.234,3.576,0.658,5.132l3.734,6.435l-18.701,10.616c-1.439-0.878-2.868-1.792-4.293-2.725    c-1.711-1.121-3.429-2.221-5.118-3.419c-1.938-1.374-3.841-2.852-5.748-4.324c-1.651-1.274-3.308-2.523-4.933-3.866    c-1.888-1.561-3.734-3.221-5.584-4.871c-1.581-1.41-3.174-2.794-4.726-4.266c-1.824-1.729-3.596-3.551-5.377-5.361    c-1.51-1.535-3.035-3.042-4.512-4.632c-1.745-1.879-3.431-3.844-5.128-5.794c-1.431-1.646-2.882-3.264-4.278-4.958    c-1.66-2.016-3.252-4.111-4.859-6.191c-1.342-1.738-2.71-3.45-4.012-5.23c-1.56-2.132-3.044-4.333-4.544-6.519    c-1.253-1.825-2.535-3.624-3.743-5.484c-1.45-2.229-2.811-4.517-4.194-6.791c-1.153-1.895-2.342-3.766-3.447-5.69    c-1.331-2.315-2.565-4.68-3.826-7.031c-1.043-1.947-2.127-3.873-3.12-5.841c-1.204-2.389-2.299-4.815-3.428-7.23    c-0.924-1.979-1.896-3.942-2.766-5.936c-1.072-2.458-2.023-4.94-3.011-7.416c-0.793-1.985-1.641-3.96-2.378-5.954    c-0.927-2.507-1.718-5.026-2.553-7.541c-0.658-1.983-1.38-3.961-1.979-5.947c-0.776-2.569-1.405-5.136-2.081-7.705    c-0.507-1.931-1.088-3.863-1.537-5.79c-0.628-2.697-1.094-5.376-1.603-8.061c-0.34-1.786-0.763-3.582-1.049-5.359    c-0.48-2.987-0.778-5.94-1.102-8.897c-0.16-1.448-0.41-2.916-0.531-4.356c-0.367-4.38-0.553-8.712-0.559-12.996    C82.605,201.894,82.814,198.173,83.124,194.543z M220.342,422.373l-25.164,14.302v-32.921l18.914-10.737l6.251,10.773V422.373z     M316.684,480.524l-23.039,13.046v-41.862c1.803,0.901,3.614,1.768,5.434,2.599c0.241,0.151,0.491,0.285,0.75,0.401    c3.268,1.486,6.534,2.829,9.788,4.092c1.077,0.418,2.141,0.792,3.214,1.185c1.285,0.47,2.577,0.987,3.853,1.42L316.684,480.524z     M325.382,450.051c-6.558-2.013-12.981-4.441-19.23-7.27c-0.247-0.15-0.501-0.286-0.763-0.408    c-5.158-2.326-10.189-4.924-15.072-7.783c-2.083-1.221-4.66-1.234-6.755-0.034s-3.388,3.429-3.39,5.843v39.651l-47.237-81.415    l-0.026-0.065l-10.5-18.099l-0.008-0.009l-3.024-5.197l-0.705-1.215l61.5-35.02v53.007c0,0.172,0.053,0.333,0.066,0.502    c0.015,0.199,0.046,0.388,0.078,0.587c0.112,0.768,0.357,1.511,0.723,2.195l0.015,0.044l0.008,0.011    c0.296,0.521,0.661,1,1.084,1.424c0.284,0.26,0.59,0.495,0.914,0.702c0.166,0.117,0.302,0.266,0.48,0.369l0.019,0.01l0.021,0.012    c2.456,1.417,4.906,2.729,7.348,3.959c0.808,0.407,1.609,0.755,2.415,1.142c1.646,0.79,3.293,1.574,4.929,2.279    c0.947,0.408,1.886,0.762,2.83,1.142c1.483,0.596,2.963,1.186,4.435,1.711c0.998,0.357,1.988,0.671,2.981,0.995    c1.404,0.458,2.803,0.902,4.195,1.295c1.014,0.287,2.02,0.544,3.026,0.796c1.354,0.34,2.701,0.653,4.041,0.931    c1.008,0.209,2.011,0.4,3.008,0.574c1.325,0.23,2.638,0.423,3.946,0.592c0.984,0.127,1.966,0.251,2.941,0.344    c1.308,0.124,2.6,0.197,3.889,0.259c0.942,0.045,1.887,0.101,2.818,0.112c0.317,0.004,0.645,0.038,0.96,0.038    c0.686,0,1.344-0.083,2.023-0.101c1.454-0.039,2.9-0.093,4.325-0.216c0.966-0.083,1.915-0.205,2.868-0.326    c1.379-0.176,2.746-0.38,4.094-0.636c0.935-0.177,1.859-0.377,2.777-0.593c1.328-0.312,2.638-0.666,3.928-1.06    c0.885-0.269,1.765-0.542,2.632-0.847c1.291-0.455,2.551-0.97,3.801-1.508c0.819-0.352,1.642-0.692,2.443-1.079    c1.269-0.614,2.497-1.304,3.721-2.008c0.725-0.417,1.465-0.803,2.174-1.252c1.312-0.83,2.571-1.753,3.822-2.69    c0.565-0.422,1.155-0.799,1.707-1.243c1.785-1.43,3.488-2.958,5.104-4.577c0.229-0.231,0.434-0.502,0.661-0.738    c1.298-1.347,2.576-2.728,3.781-4.219c0.202-0.198,0.391-0.409,0.566-0.632c12.922-18.183,19.392-40.164,18.382-62.447    c0-67.388-43.822-149.428-101.914-190.816c-3.375-2.428-6.921-4.783-10.592-7.039V97.473l0.118,0.073    c0.37,0.242,0.739,0.513,1.109,0.758c2.762,1.83,5.516,3.747,8.265,5.753c0.957,0.697,1.912,1.421,2.867,2.138    c2.28,1.711,4.552,3.479,6.817,5.303c0.897,0.723,1.796,1.435,2.691,2.175c3.078,2.547,6.146,5.165,9.187,7.917l0.013-0.02    c0.138,0.125,0.276,0.237,0.415,0.349c51.801,48.329,88.036,110.99,104.085,179.993c0.02,0.145,0.046,0.283,0.072,0.428    c3.652,16.383,5.544,33.11,5.645,49.895c0,4.405-0.143,8.696-0.43,12.875c-0.09,1.324-0.284,2.562-0.402,3.863    c-0.257,2.804-0.49,5.627-0.877,8.319c-0.211,1.466-0.533,2.831-0.783,4.262c-0.419,2.416-0.803,4.864-1.332,7.181    c-0.337,1.481-0.791,2.854-1.174,4.293c-0.57,2.146-1.099,4.332-1.766,6.384c-0.463,1.423-1.04,2.732-1.55,4.108    c-0.719,1.938-1.393,3.919-2.203,5.762c-0.595,1.354-1.302,2.587-1.946,3.889c-0.854,1.729-1.667,3.504-2.608,5.139    c-0.727,1.264-1.566,2.403-2.344,3.611c-0.987,1.53-1.931,3.109-2.999,4.545c-0.857,1.153-1.824,2.177-2.734,3.269    c-1.114,1.337-2.188,2.724-3.379,3.966c-0.101,0.093-0.204,0.18-0.302,0.278C388.303,454.419,358.928,460.143,325.382,450.051    L325.382,450.051z M432.671,423.031c1.286-2.357,2.495-4.792,3.626-7.304l0.002-0.004c1.429-3.171,2.691-6.502,3.872-9.909    c0.321-0.927,0.619-1.873,0.923-2.818c0.895-2.793,1.708-5.658,2.441-8.596c0.197-0.794,0.42-1.565,0.606-2.369    c0.846-3.665,1.567-7.435,2.161-11.311c0.131-0.855,0.223-1.741,0.342-2.605c0.435-3.167,0.787-6.4,1.055-9.697    c0.093-1.146,0.189-2.288,0.262-3.449c0.261-4.16,0.441-8.382,0.441-12.733c-0.096-17.63-2.066-35.2-5.875-52.414    c-0.018-0.128-0.042-0.256-0.072-0.382c-16.657-72.023-54.472-137.419-108.586-187.783c-0.184-0.165-0.375-0.316-0.573-0.461    c-3.173-2.856-6.372-5.577-9.586-8.226c-0.995-0.82-1.994-1.604-2.993-2.404c-2.299-1.842-4.606-3.63-6.919-5.365    c-1.073-0.803-2.146-1.606-3.221-2.385c-2.564-1.856-5.134-3.641-7.71-5.353c-0.722-0.481-1.441-0.995-2.163-1.465    c-0.171-0.112-0.342-0.238-0.513-0.349l23.164-13.118c81.96,49.33,148.085,164.58,148.085,259.034    C471.441,374.439,457.303,406.965,432.671,423.031L432.671,423.031z"/>
	</g>
</g>
<g>
</g>
<g>
</g>
<g>
</g>
<g>
</g>
<g>
</g>
<g>
</g>
<g>
</g>
<g>
</g>
<g>
</g>
<g>
</g>
<g>
</g>
<g>
</g>
<g>
</g>
<g>
</g>
<g>
</g>
</svg>