<svg id="Layer_1" data-name="Layer 1" xmlns="http://www.w3.org/2000/svg" viewBox="0 0 34.98 34.98"><defs><style>.cls-1{fill:#428cff;}.cls-1,.cls-2,.cls-3,.cls-4,.cls-5{fill-rule:evenodd;}.cls-2{fill:#c7d9fc;}.cls-3{fill:#fff5f5;}.cls-4{fill:#a1c2f7;}.cls-5{fill:#7dabfa;}</style></defs><title>5</title><path class="cls-1" d="M3.05,12.08c.55.74,1,.3,1.12,0,.23-.72-.24-2.55.31-3.45a1.47,1.47,0,0,1,1.08-.74c.07,0,0,0,.16-.07s10.67,0,10.76,0h1.72V9.15c0,1.15,0,2.31,0,3.46a6.93,6.93,0,0,0,.09,1.63c.17.68.37.69.62,1.09a2.57,2.57,0,0,0,1.11.58,8.82,8.82,0,0,0,1.66.06l-.12.84a3.32,3.32,0,0,1-1,1.8c-.91.94-2.83.64-2.24,1.69.18.32.63.31,1.08.32a13.63,13.63,0,0,0,6.79-1.45,4.94,4.94,0,0,0,2.37-3.1c.15-.24,1.43-.13,1.78-.13.55,0,1.35,0,1.88,0l0,9.3-1.2,0H4.23V17.12c0-.5.06-.88-.31-1.06s-.67.11-.85.32V27.76a2.89,2.89,0,0,0,2.06,2.68,12.1,12.1,0,0,0,3.07.14h6.49v2.25c-2.38,0-4.71-.47-5.58,1.39-.19.41-.45,1.57-.06,2a.94.94,0,0,0,.54.17H27a.74.74,0,0,0,.41-.18c.66-.71-.21-2.87-1.23-3.12l-4.47-.25V30.58h6.56a11.61,11.61,0,0,0,3.12-.16,3,3,0,0,0,1.73-1.55,7.54,7.54,0,0,0,.27-3V16c2.13,0,3.5.21,4.35-1.19a2.3,2.3,0,0,0,.3-1.08V4a2.42,2.42,0,0,0-.7-2,2.33,2.33,0,0,0-1.83-.63H21.26c-1.12,0-2.18,0-2.81,1.25-.37.73-.23,2.89-.23,3.94-1.55,0-11.77-.1-12.76.09a3,3,0,0,0-1.67.92,3.16,3.16,0,0,0-.73,1.87v2.61Z" transform="translate(-3.05 -1.41)"/><path class="cls-2" d="M23.81,18.92s0,0,0,0a8,8,0,0,0,1.63-1.34l.87-2.11a6,6,0,0,0,1.14-.09c.22-.74.68-.53,1.46-.53h6.36c.55-1.11.4-1,.4-2.48a19.42,19.42,0,0,0-.07-2.87,2.32,2.32,0,1,1,0-1,17,17,0,0,0,.07-3.14c0-1.25.19-1.88-.45-2.81-1.5.07-3.15,0-4.67,0H21.16c-.86,0-1.38,0-1.66.66a67.86,67.86,0,0,0-.12,7v2.32c0,.87-.14,1.49.41,2s1.37.3,2.05.29c1,0,1.13.2,1,1.23a6,6,0,0,1-1.4,3.33,10.87,10.87,0,0,0,2.32-.45Z" transform="translate(-3.05 -1.41)"/><path class="cls-2" d="M28.54,16.09a4.94,4.94,0,0,1-2.37,3.1,13.63,13.63,0,0,1-6.79,1.45c-.45,0-.9,0-1.08-.32-.59-1.05,1.34-.76,2.24-1.69a3.32,3.32,0,0,0,1-1.8l-.42.29c-1.65,1-3.72,2.45-5.4,3.48L11.66,23.2c-.56.37-1.1.69-1.67,1.07l-.83.53-.82.51H31a32.57,32.57,0,0,0,.08-4.65c-.1-1.46,0-3.13,0-4.62a9.66,9.66,0,0,0-2.52,0Z" transform="translate(-3.05 -1.41)"/><path class="cls-3" d="M3.05,12.08v2c.17-.21.25-.44.66-.39a.52.52,0,0,1,.49.58c0,.25-.41,1-1.15.16v2c.18-.21.4-.55.85-.32s.31.57.31,1.06v8.19H8.34l.82-.51.83-.53c.57-.38,1.1-.69,1.67-1.07l4.08-2.61c1.69-1,3.76-2.49,5.4-3.48l.42-.29.12-.84A8.82,8.82,0,0,1,20,15.92a2.57,2.57,0,0,1-1.11-.58c-.45.1-9.3,5.91-10.17,6.46-.58.36-1.14.72-1.71,1.1s-1.14.77-1.65,1V17.46c.21-.14,2-1.27,2.11-1.42A3,3,0,0,1,6.44,16,.56.56,0,0,1,6,15.17c.14-.38.53-.36.93-.36.87,0,1.74,0,2.61,0a1.85,1.85,0,0,1,.55-.41l.58-.37c.29-.19,1-.52,1.09-.81.12-.9.48-.75,1.4-.74A3.94,3.94,0,0,1,14,11.9a5,5,0,0,0,.83-.59H11.11l-1.33.85-.21.13-.16.15s0,0,0,0c.52,0,1-.08,1.2.32a.56.56,0,0,1-.49.82c-.57.27-2.27-.18-2.89.18L5.41,15c0-.68-.08-5.9,0-6.46s.27-.4.12-.6a1.47,1.47,0,0,0-1.08.74c-.56.9-.09,2.73-.31,3.45-.09.28-.58.72-1.12,0Z" transform="translate(-3.05 -1.41)"/><path class="cls-2" d="M15.86,10.64c0,.66-.38.66-1,.67a5,5,0,0,1-.83.59,3.94,3.94,0,0,0-.84.58c.66,0,1.48,0,2.1,0a.57.57,0,0,1,.24,1.1,13.61,13.61,0,0,1-2.08.05c-.84,0-1.19.14-1.66-.42-.12.29-.81.62-1.09.81l-.58.37a1.85,1.85,0,0,0-.55.41c.9,0,1.91-.06,2.78,0S13.37,16,12,16L6.44,16A3,3,0,0,0,7.51,16c-.11.15-1.9,1.28-2.11,1.42v6.48c.51-.28,1.14-.71,1.65-1s1.13-.73,1.71-1.1c.87-.54,9.72-6.36,10.17-6.46-.25-.41-.45-.42-.62-1.09a6.93,6.93,0,0,1-.09-1.63c0-1.15,0-2.31,0-3.46a12.32,12.32,0,0,1-2.36,1.49Z" transform="translate(-3.05 -1.41)"/><path class="cls-2" d="M6.1,29.36c.48-.06,13.1-.08,13.9-.08s10.1.15,10.39,0a2.28,2.28,0,0,0,.6-1.1A8.61,8.61,0,0,0,31,26.48H5.39c0,1.64-.08,1.84.71,2.89Z" transform="translate(-3.05 -1.41)"/><path class="cls-2" d="M10.09,13.63c-.71,0-1.47,0-2.18,0s-1.65.19-1.87-.31a.58.58,0,0,1,.25-.75,22.44,22.44,0,0,1,3.09-.07s0-.06,0,0l.16-.15.21-.13,1.33-.85a12.13,12.13,0,0,1-1.87,0,.58.58,0,0,1,.05-1.08c.38-.11,3.08,0,3.69,0,.25-.35,3.22-2,3.5-2.34-.09,0-10.44-.05-10.76,0s-.09,0-.16.07c.15.21,0-.07-.12.6s0,5.78,0,6.46L7.2,13.82c.62-.37,2.32.08,2.89-.18Z" transform="translate(-3.05 -1.41)"/><path class="cls-1" d="M27.62,6.73a2.32,2.32,0,1,0,1.06,4.52c3-.78,1.83-5.23-1.06-4.52Z" transform="translate(-3.05 -1.41)"/><path class="cls-1" d="M22.4,6.71a2.32,2.32,0,0,0,1,4.55c2.94-.62,2.08-5.2-1-4.55Z" transform="translate(-3.05 -1.41)"/><path class="cls-1" d="M35.64,9.46v-1a2.32,2.32,0,1,0,0,1Z" transform="translate(-3.05 -1.41)"/><path class="cls-3" d="M23.77,25.29h3.67L31,25.12l0-4.53c-.39.14-3,1.91-3.62,2.28L25.61,24l-1.83,1.26Z" transform="translate(-3.05 -1.41)"/><path class="cls-2" d="M11.19,35.23h14a1.78,1.78,0,0,0-.38-1.17H11.63a3.43,3.43,0,0,0-.44,1.18Z" transform="translate(-3.05 -1.41)"/><path class="cls-4" d="M35.64,8.5v1a19.42,19.42,0,0,1,.07,2.87c0,1.47.15,1.36-.4,2.48,1.62,0,1.56-.84,1.56-2.27V4.82c0-1.63.1-2.18-1.61-2.26.64.93.45,1.55.45,2.81a17,17,0,0,1-.07,3.14Z" transform="translate(-3.05 -1.41)"/><path class="cls-4" d="M28.54,16.09a9.66,9.66,0,0,1,2.52,0c0,1.48-.07,3.16,0,4.62A32.57,32.57,0,0,1,31,25.32l1.2,0,0-9.3c-.52-.05-1.33,0-1.88,0-.35,0-1.63-.11-1.78.13Z" transform="translate(-3.05 -1.41)"/><polygon class="cls-4" points="12.84 31.44 16.33 31.44 16.33 29.17 12.84 29.16 12.84 31.44 12.84 31.44"/><path class="cls-1" d="M11.11,11.31h3.75c.62,0,1,0,1-.67s-.53-.5-1.19-.49-1.12,0-1.67,0-3.31-.08-3.69,0a.58.58,0,0,0-.05,1.08,12.13,12.13,0,0,0,1.87,0Z" transform="translate(-3.05 -1.41)"/><path class="cls-1" d="M6.44,16,12,16c1.36,0,1.12-1.1.34-1.16s-1.89,0-2.78,0-1.74,0-2.61,0c-.4,0-.79,0-.93.36a.56.56,0,0,0,.43.79Z" transform="translate(-3.05 -1.41)"/><path class="cls-3" d="M13,10.16c.56,0,1.12,0,1.67,0s1-.1,1.19.49a12.32,12.32,0,0,0,2.36-1.49V7.82H16.49c-.28.34-3.25,2-3.5,2.34Z" transform="translate(-3.05 -1.41)"/><path class="cls-4" d="M6.1,29.36l-.41,0c.24.21,13.27.06,14.65.05l7.38,0a12.44,12.44,0,0,0,3.48-.2c1.1-.52.92-1.42,1-2.73H31A8.61,8.61,0,0,1,31,28.17a2.28,2.28,0,0,1-.6,1.1c-.29.17-9.61,0-10.39,0s-13.41,0-13.9.08Z" transform="translate(-3.05 -1.41)"/><path class="cls-1" d="M10.09,13.63a.56.56,0,0,0,.49-.82c-.17-.4-.68-.34-1.2-.32a22.44,22.44,0,0,0-3.09.07.58.58,0,0,0-.25.75c.22.51,1.29.31,1.87.31s1.47,0,2.18,0Z" transform="translate(-3.05 -1.41)"/><path class="cls-1" d="M11.78,13.22c.47.56.82.42,1.66.42a13.61,13.61,0,0,0,2.08-.05.57.57,0,0,0-.24-1.1c-.62-.06-1.44,0-2.1,0-.92,0-1.28-.16-1.4.74Z" transform="translate(-3.05 -1.41)"/><path class="cls-3" d="M33.09,7.85a1.16,1.16,0,1,0,.6,2.25,1.16,1.16,0,0,0-.6-2.25Z" transform="translate(-3.05 -1.41)"/><path class="cls-3" d="M27.8,7.88a1.16,1.16,0,1,0,.68,2.22,1.16,1.16,0,0,0-.68-2.22Z" transform="translate(-3.05 -1.41)"/><path class="cls-3" d="M22.55,7.88a1.16,1.16,0,1,0,.68,2.22A1.18,1.18,0,0,0,24,8.62a1.15,1.15,0,0,0-1.44-.74Z" transform="translate(-3.05 -1.41)"/><path class="cls-4" d="M23.81,18.92c1.79-.44,3.5-1.65,3.68-3.57a6,6,0,0,1-1.14.09l-.87,2.11a8,8,0,0,1-1.63,1.34s0,0,0,0Z" transform="translate(-3.05 -1.41)"/><path class="cls-3" d="M5.69,29.33l.41,0c-.79-1-.71-1.25-.71-2.89H4.22a4.44,4.44,0,0,0,.19,1.92,1.59,1.59,0,0,0,1.28.93Z" transform="translate(-3.05 -1.41)"/><path class="cls-5" d="M15.89,32.84c.28.15,4.36,0,4.65,0V30.57H19.39v2.27Z" transform="translate(-3.05 -1.41)"/><path class="cls-1" d="M14.6,14.84c-.82.22-.58,1.48.87,1.1.75-.2.45-1.45-.87-1.1Z" transform="translate(-3.05 -1.41)"/><path class="cls-1" d="M6.36,10.22c-1,.49,0,1.47,1,1a.57.57,0,0,0,.15-.92,1.38,1.38,0,0,0-1.16-.11Z" transform="translate(-3.05 -1.41)"/><path class="cls-3" d="M11.19,35.23A3.43,3.43,0,0,1,11.63,34c-.93,0-1.53.22-1.57,1.18Z" transform="translate(-3.05 -1.41)"/><path class="cls-4" d="M25.19,35.23h1.18c-.05-.94-.64-1.16-1.56-1.17a1.78,1.78,0,0,1,.38,1.17Z" transform="translate(-3.05 -1.41)"/><path class="cls-1" d="M3.05,14.05v.35c.75.89,1.15.09,1.15-.16a.52.52,0,0,0-.49-.58c-.41,0-.49.18-.66.39Z" transform="translate(-3.05 -1.41)"/></svg>