<svg id="Layer_1" data-name="Layer 1" xmlns="http://www.w3.org/2000/svg" viewBox="0 0 35 33.14"><defs><style>.cls-1{fill:#fff;}.cls-1,.cls-2,.cls-3,.cls-4,.cls-5{fill-rule:evenodd;}.cls-2{fill:#458cfc;}.cls-3{fill:#ccd9fc;}.cls-4{fill:#a3c2fa;}.cls-5{fill:#7dadfa;}</style></defs><title>4</title><path class="cls-1" d="M2.83,8V9.9c.17-.21.24-.43.68-.38a.54.54,0,0,1,0,1.07c-.39,0-.5-.17-.68-.35v1.83c.17-.17.25-.36.61-.35.82,0,.55,1.33.55,2.35V25.53H35.45c.08-.74,0-1.89,0-2.66,0-6.25-.09-12.61,0-18.84-.22-.15-17-.06-18.75-.06H7.28c-1,0-3-.3-3.25,1.38A17.9,17.9,0,0,0,4,7.53C4,8.39,3.55,8.7,2.83,8Z" transform="translate(-2.83 -2.87)"/><path class="cls-2" d="M2.83,5.25V8C3.55,8.7,4,8.39,4,7.53A17.9,17.9,0,0,1,4,5.36C4.31,3.68,6.26,4,7.28,4h9.43c1.72,0,18.53-.09,18.75.06a1.72,1.72,0,0,1,1.21,1.75c0,.95,0,1.9,0,2.85V22.74c0,.86.06,1.93,0,2.76l-1.21,0H4V14.07c0-1,.27-2.32-.55-2.35-.36,0-.45.18-.61.35V28.22c.12.2.16.47.3.72,1,1.93,3.1,1.55,5.24,1.55,2.61,0,5.27,0,7.87,0v2.2c-.93,0-5.16-.06-5.72,0A2.32,2.32,0,0,0,8.9,33.92,2.36,2.36,0,0,0,8.67,35a1.68,1.68,0,0,0,0,.59c.07.19.22.27.31.38H31.65l.08-.07a.76.76,0,0,0,.24-.3,3,3,0,0,0-.2-1.71c-.83-1.59-2.69-1.23-4.46-1.23H24.42V30.49c2.6,0,5.26,0,7.87,0,2,0,3.7.31,4.86-1,.45-.51.39-.79.67-1.26v-23c-.12-.24-.17-.61-.33-.9a2.7,2.7,0,0,0-1.27-1.19c-.29-.14-.68-.19-.9-.29H5.4c-.26.11-.63.14-1,.29A3,3,0,0,0,2.83,5.25Z" transform="translate(-2.83 -2.87)"/><path class="cls-3" d="M5.46,29.31c.15.12.21.08.46.12.39-.25,24.12,0,28.43-.07.59,0,.82-.34,1-1a5.3,5.3,0,0,0,.1-1.76H5.13c.26,1.43-.28,1.54.73,2.69Z" transform="translate(-2.83 -2.87)"/><path class="cls-1" d="M31.65,36h6.19V28.22c-.28.47-.23.76-.67,1.26-1.17,1.32-2.83,1-4.86,1-2.61,0-5.27,0-7.87,0V32.7h2.88c1.77,0,3.62-.37,4.46,1.23a3,3,0,0,1,.2,1.71.76.76,0,0,1-.24.3l-.08.07Z" transform="translate(-2.83 -2.87)"/><path class="cls-1" d="M2.83,36H9c-.1-.11-.25-.19-.31-.38a1.68,1.68,0,0,1,0-.59,2.36,2.36,0,0,1,.24-1.12,2.32,2.32,0,0,1,1.62-1.18c.57-.11,4.79,0,5.72,0v-2.2c-2.61,0-5.26,0-7.87,0-2.15,0-4.21.37-5.24-1.55-.13-.25-.17-.52-.3-.72V36Z" transform="translate(-2.83 -2.87)"/><polygon class="cls-2" points="24.34 22.07 31.45 22.07 31.44 15.34 24.34 15.34 24.34 22.07 24.34 22.07"/><path class="cls-4" d="M35.45,25.54l1.21,0c.07-.83,0-1.91,0-2.76V8.63c0-.95,0-1.9,0-2.85A1.72,1.72,0,0,0,35.46,4c-.06,6.23,0,12.58,0,18.84,0,.77,0,1.92,0,2.66Z" transform="translate(-2.83 -2.87)"/><path class="cls-3" d="M11,34.9l18.65,0a1.64,1.64,0,0,0-.38-1.14l-17.87,0c-.08.22-.15.25-.25.48a4.48,4.48,0,0,0-.16.62Z" transform="translate(-2.83 -2.87)"/><path class="cls-4" d="M22.06,30.51H17.5l0,2.11a43.47,43.47,0,0,0,4.6,0l0-2.08Z" transform="translate(-2.83 -2.87)"/><path class="cls-5" d="M5.92,29.43c1.13.09,6.79,0,8.4,0,2.8,0,5.61,0,8.41,0,1.73,0,11.33.17,12.57-.07a1.71,1.71,0,0,0,1.18-.88l.18-1.83H35.49a5.3,5.3,0,0,1-.1,1.76c-.21.63-.44,1-1,1-4.31,0-28-.18-28.43.07Z" transform="translate(-2.83 -2.87)"/><path class="cls-1" d="M5.46,29.31h.4c-1-1.15-.47-1.25-.73-2.69H4a4,4,0,0,0,.18,1.83,1.57,1.57,0,0,0,1.28.86Z" transform="translate(-2.83 -2.87)"/><path class="cls-5" d="M22.06,30.51l0,2.08a43.47,43.47,0,0,1-4.6,0l0-2.11c-.23.11-.05-.06-.11.2,0,0,0,.23,0,.25l0,1.76,5.83-.06V30.51Z" transform="translate(-2.83 -2.87)"/><path class="cls-1" d="M2.83,5.25A3,3,0,0,1,4.44,3.17c.33-.15.69-.18,1-.29H2.83V5.25Z" transform="translate(-2.83 -2.87)"/><path class="cls-1" d="M37.83,5.25V2.87H35.32c.22.1.62.16.9.29A2.7,2.7,0,0,1,37.5,4.35c.16.29.21.66.33.9Z" transform="translate(-2.83 -2.87)"/><path class="cls-5" d="M29.62,34.92l1.18,0c0-.92-.66-1-1.56-1.12a1.64,1.64,0,0,1,.38,1.14Z" transform="translate(-2.83 -2.87)"/><path class="cls-1" d="M11,34.9a4.48,4.48,0,0,1,.16-.62c.09-.23.17-.27.25-.48-.89,0-1.51.23-1.52,1.11Z" transform="translate(-2.83 -2.87)"/><path class="cls-2" d="M2.83,9.9v.34c.17.18.28.39.68.35a.54.54,0,0,0,0-1.07c-.44-.06-.51.17-.68.38Z" transform="translate(-2.83 -2.87)"/></svg>