<svg id="Layer_1" data-name="Layer 1" xmlns="http://www.w3.org/2000/svg" viewBox="0 0 35.21 31.55"><defs><style>.cls-1{fill:#fff;}.cls-1,.cls-2,.cls-3,.cls-4,.cls-5,.cls-6{fill-rule:evenodd;}.cls-2{fill:#458cfc;}.cls-3{fill:#ccd9fc;}.cls-4{fill:#5487d6;}.cls-5{fill:#a3c2fa;}.cls-6{fill:#7dadfa;}</style></defs><title>1</title><path class="cls-1" d="M1.86,7.84V9.61c.17-.2.24-.41.68-.36A.5.5,0,0,1,3,9.76a.51.51,0,0,1-.48.51c-.4,0-.51-.16-.68-.33v1.74c.17-.16.26-.35.62-.33A.53.53,0,0,1,3,11.8c.06.31,0,11.37,0,12.69H34.67c.08-.71,0-1.8,0-2.53,0-6-.09-12,0-17.93C34.46,3.88,17.55,4,15.82,4H6.33c-1,0-3-.28-3.27,1.32-.2,1.15.28,2.57-.36,2.83-.43.18-.65-.11-.84-.28Z" transform="translate(-1.86 -2.92)"/><path class="cls-2" d="M1.86,5.19V7.84c.2.17.41.46.84.28.63-.27.15-1.68.36-2.83C3.34,3.69,5.3,4,6.33,4h9.49c1.73,0,18.64-.09,18.87.06A1.64,1.64,0,0,1,35.9,5.69c0,2.61,0,5.45,0,8.07,0,1.2.08,9.76,0,10.7l-1.22,0H3c0-1.32,0-12.38,0-12.69a.53.53,0,0,0-.54-.46c-.36,0-.45.17-.62.33V27a3,3,0,0,0,1.83,2,14.5,14.5,0,0,0,3.74.2c2.63,0,5.3,0,7.92,0v2.1h-2.9c-1.77,0-4.68-.45-4.72,2.23a1.49,1.49,0,0,0,0,.57c.07.18.22.26.32.36H30.85c.1-.1.25-.18.32-.36a1.52,1.52,0,0,0,0-.57c0-2.68-3-2.23-4.72-2.23h-2.9v-2.1c2.62,0,5.29,0,7.92,0,2,0,3.72.3,4.89-1,.45-.48.39-.76.68-1.2V5.19c-.12-.23-.17-.58-.34-.86a3.17,3.17,0,0,0-2.19-1.41H4.44c-.26.11-.63.13-1,.28a2.83,2.83,0,0,0-1.62,2Z" transform="translate(-1.86 -2.92)"/><path class="cls-3" d="M4.5,28.09c.15.12.21.07.47.11.31-.19,7.11-.07,8.1-.07l8.18,0c4,0,8.29.07,12.31,0,.47,0,.5-.06.7-.31a3.07,3.07,0,0,0,.44-2.3H4.17c.26,1.36-.28,1.47.73,2.56Z" transform="translate(-1.86 -2.92)"/><path class="cls-1" d="M30.85,34.47h6.23V27c-.28.45-.23.72-.68,1.2-1.17,1.25-2.84,1-4.89,1-2.63,0-5.3,0-7.92,0v2.1h2.9c1.77,0,4.68-.45,4.72,2.23a1.52,1.52,0,0,1,0,.57c-.07.17-.22.26-.32.36Z" transform="translate(-1.86 -2.92)"/><path class="cls-1" d="M1.86,34.47H8.08c-.09-.1-.25-.18-.32-.36a1.49,1.49,0,0,1,0-.57c0-2.68,3-2.23,4.72-2.23h2.9v-2.1c-2.62,0-5.29,0-7.92,0A14.5,14.5,0,0,1,3.69,29a3,3,0,0,1-1.83-2v7.42Z" transform="translate(-1.86 -2.92)"/><polygon class="cls-4" points="2.75 9.43 9.9 9.43 9.9 3.02 2.75 3.02 2.75 9.43 2.75 9.43"/><path class="cls-2" d="M4.73,12.24l6.94,0c.1-.29.11-5.88,0-6.23h-7a52.57,52.57,0,0,0,0,6.22Z" transform="translate(-1.86 -2.92)"/><path class="cls-5" d="M34.67,24.5l1.22,0c.09-.95,0-9.5,0-10.7,0-2.63,0-5.46,0-8.07A1.64,1.64,0,0,0,34.69,4c-.06,5.93,0,12,0,17.93,0,.73,0,1.83,0,2.53Z" transform="translate(-1.86 -2.92)"/><path class="cls-3" d="M10,33.41l18.76,0a1.52,1.52,0,0,0-.39-1.08l-18,0c-.07.21-.15.24-.25.46a4.46,4.46,0,0,0-.16.59Z" transform="translate(-1.86 -2.92)"/><path class="cls-5" d="M21.21,29.23H16.62v2c.62,0,4.23.08,4.63,0l0-2Z" transform="translate(-1.86 -2.92)"/><path class="cls-6" d="M5,28.2c1.13.08,6.83,0,8.45,0H30.33c1.29,0,5,.39,5.38-.94l.18-1.74H34.71a3.07,3.07,0,0,1-.44,2.3c-.19.25-.23.3-.7.31-4,0-8.27,0-12.31,0l-8.18,0c-1,0-7.8-.12-8.1.07Z" transform="translate(-1.86 -2.92)"/><path class="cls-1" d="M4.5,28.09h.4c-1-1.09-.47-1.2-.73-2.56H3a3.64,3.64,0,0,0,.18,1.74,1.59,1.59,0,0,0,1.28.82Z" transform="translate(-1.86 -2.92)"/><path class="cls-6" d="M21.21,29.23l0,2c-.39.12-4,.07-4.63,0v-2c-.23.1-.05,0-.11.19l0,1.92,5.86-.05v-2Z" transform="translate(-1.86 -2.92)"/><path class="cls-1" d="M1.86,5.19a2.83,2.83,0,0,1,1.62-2c.33-.15.7-.17,1-.28H1.86V5.19Z" transform="translate(-1.86 -2.92)"/><path class="cls-1" d="M37.07,5.19V2.92H34.54a3.17,3.17,0,0,1,2.19,1.41c.16.28.21.63.34.86Z" transform="translate(-1.86 -2.92)"/><path class="cls-6" d="M28.81,33.43l1.19,0c0-.88-.67-1-1.57-1.07a1.52,1.52,0,0,1,.39,1.08Z" transform="translate(-1.86 -2.92)"/><path class="cls-1" d="M10,33.41a4.46,4.46,0,0,1,.16-.59c.1-.22.17-.25.25-.46-.9,0-1.52.22-1.53,1.05Z" transform="translate(-1.86 -2.92)"/><path class="cls-2" d="M1.86,9.61v.33c.17.17.28.38.68.33A.51.51,0,0,0,3,9.76a.5.5,0,0,0-.48-.51c-.44-.05-.51.16-.68.36Z" transform="translate(-1.86 -2.92)"/></svg>