<svg id="Layer_1" data-name="Layer 1" xmlns="http://www.w3.org/2000/svg" viewBox="0 0 34.75 35.07"><defs><style>.cls-1{fill:#fff;}.cls-1,.cls-2,.cls-3,.cls-4,.cls-5,.cls-6{fill-rule:evenodd;}.cls-2{fill:#458cfc;}.cls-3{fill:#ccd9fc;}.cls-4{fill:#5787d6;}.cls-5{fill:#a3c2fa;}.cls-6{fill:#7dadfa;}</style></defs><title>2</title><path class="cls-1" d="M3.07,7.52v2c.17-.22.24-.45.67-.4a.53.53,0,0,1,.47.57.54.54,0,0,1-.47.56c-.39.05-.5-.18-.67-.36v1.93c.17-.18.25-.39.61-.37a.54.54,0,0,1,.53.5c.06.34,0,12.64,0,14.1H35.45c.08-.78,0-2,0-2.82,0-6.61-.09-13.34,0-19.93-.22-.17-16.92-.07-18.62-.07H7.48c-1,0-2.95-.31-3.23,1.46C4.05,6,4.52,7.53,3.9,7.83c-.43.2-.64-.12-.83-.31Z" transform="translate(-3.07 -2.05)"/><path class="cls-2" d="M3.07,4.57v3c.19.19.41.51.83.31.62-.29.15-1.87.35-3.15C4.53,2.9,6.46,3.21,7.48,3.21h9.37c1.71,0,18.4-.1,18.62.07a1.82,1.82,0,0,1,1.2,1.85c0,2.9,0,6.06,0,9,0,1.33.07,10.85,0,11.9l-1.2,0H4.24c0-1.47,0-13.76,0-14.1a.54.54,0,0,0-.53-.5c-.36,0-.44.19-.61.37V28.87a3.23,3.23,0,0,0,1.81,2.18,12.74,12.74,0,0,0,3.69.22c2.59,0,5.23,0,7.82,0v2.33H13.52c-1.75,0-4.62-.5-4.66,2.48a1.92,1.92,0,0,0,0,.63,1.21,1.21,0,0,0,.31.4H31.68a1.19,1.19,0,0,0,.31-.4,2,2,0,0,0,0-.63c0-3-2.91-2.48-4.66-2.48H24.5V31.28c2.59-.05,5.22,0,7.82,0,2,0,3.67.33,4.83-1.07.44-.53.39-.84.67-1.34V4.57c-.12-.25-.17-.64-.33-1A3.1,3.1,0,0,0,35.33,2H5.61c-.26.12-.62.15-.95.31a3.13,3.13,0,0,0-1.6,2.21Z" transform="translate(-3.07 -2.05)"/><path class="cls-3" d="M5.67,30c.15.13.21.08.46.12.3-.21,7-.08,8-.08l8.08,0c4,0,8.19.08,12.15,0,.46,0,.5-.07.69-.35a3.77,3.77,0,0,0,.44-2.55H5.35c.25,1.52-.28,1.63.72,2.85Z" transform="translate(-3.07 -2.05)"/><path class="cls-1" d="M31.68,37.12h6.14V28.87c-.28.5-.23.8-.67,1.34-1.16,1.4-2.81,1.07-4.83,1.07-2.59,0-5.23,0-7.82,0v2.33h2.86c1.75,0,4.62-.5,4.66,2.48a2,2,0,0,1,0,.63,1.19,1.19,0,0,1-.31.4Z" transform="translate(-3.07 -2.05)"/><path class="cls-1" d="M3.07,37.12H9.21a1.21,1.21,0,0,1-.31-.4,1.92,1.92,0,0,1,0-.63c0-3,2.91-2.48,4.66-2.48h2.86V31.28c-2.59-.05-5.22,0-7.82,0a12.74,12.74,0,0,1-3.69-.22,3.23,3.23,0,0,1-1.81-2.18v8.25Z" transform="translate(-3.07 -2.05)"/><polygon class="cls-4" points="2.71 23.36 9.78 23.36 9.78 16.23 2.71 16.23 2.71 23.36 2.71 23.36"/><path class="cls-2" d="M5.89,25.29l6.87,0c.09-.35.09-6.6,0-6.93H5.87c-.11.44-.1,6.63,0,6.92Z" transform="translate(-3.07 -2.05)"/><path class="cls-5" d="M35.45,26l1.2,0c.09-1.05,0-10.56,0-11.9,0-2.92,0-6.08,0-9a1.82,1.82,0,0,0-1.2-1.85c-.06,6.59,0,13.32,0,19.93,0,.82,0,2,0,2.82Z" transform="translate(-3.07 -2.05)"/><path class="cls-3" d="M11.14,35.94l18.52,0a1.83,1.83,0,0,0-.38-1.2l-17.74,0c-.07.24-.15.27-.24.52a5.14,5.14,0,0,0-.16.65Z" transform="translate(-3.07 -2.05)"/><path class="cls-5" d="M22.16,31.29H17.63v2.24a41,41,0,0,0,4.57,0l0-2.2Z" transform="translate(-3.07 -2.05)"/><path class="cls-6" d="M6.13,30.15c1.11.09,6.74,0,8.34,0h16.7c1.27,0,4.92.43,5.31-1l.18-1.94H35.49a3.77,3.77,0,0,1-.44,2.55c-.19.28-.23.34-.69.35-4,0-8.16,0-12.15,0l-8.08,0c-1,0-7.7-.13-8,.08Z" transform="translate(-3.07 -2.05)"/><path class="cls-1" d="M5.67,30h.4c-1-1.21-.47-1.33-.72-2.85H4.23a4.53,4.53,0,0,0,.18,1.94A1.57,1.57,0,0,0,5.67,30Z" transform="translate(-3.07 -2.05)"/><path class="cls-6" d="M22.16,31.29l0,2.2a41,41,0,0,1-4.57,0V31.29c-.22.12,0-.05-.11.21l0,2.13,5.79-.06V31.3Z" transform="translate(-3.07 -2.05)"/><path class="cls-1" d="M3.07,4.57a3.13,3.13,0,0,1,1.6-2.21c.33-.16.69-.19.95-.31H3.07V4.57Z" transform="translate(-3.07 -2.05)"/><path class="cls-1" d="M37.82,4.57V2h-2.5a3.1,3.1,0,0,1,2.16,1.57c.16.31.21.7.33,1Z" transform="translate(-3.07 -2.05)"/><path class="cls-6" d="M29.67,36l1.17,0c0-1-.66-1.11-1.55-1.19a1.83,1.83,0,0,1,.38,1.2Z" transform="translate(-3.07 -2.05)"/><path class="cls-1" d="M11.14,35.94a5.14,5.14,0,0,1,.16-.65c.09-.25.17-.28.24-.52-.89,0-1.5.25-1.51,1.17Z" transform="translate(-3.07 -2.05)"/><path class="cls-2" d="M3.07,9.48v.37c.17.19.28.42.67.36a.54.54,0,0,0,.47-.56.53.53,0,0,0-.47-.57c-.44-.06-.5.18-.67.4Z" transform="translate(-3.07 -2.05)"/></svg>